<?xml version="1.0" encoding="utf-8"?>
<!-- Generator: Adobe Illustrator 22.0.1, SVG Export Plug-In . SVG Version: 6.00 Build 0)  -->
<svg version="1.1" xmlns="http://www.w3.org/2000/svg" xmlns:xlink="http://www.w3.org/1999/xlink" x="0px" y="0px"
	 viewBox="0 0 1793.9 1447.6" style="enable-background:new 0 0 1793.9 1447.6;" xml:space="preserve">
<style type="text/css">
	.st0{fill:#73D5F6;}
	.st1{fill:#FFFFFF;}
	.st2{fill:#FBD740;}
	.st3{fill:#F4E6E3;}
	.st4{fill:#272825;}
	.st5{fill:#7F946E;}
	.st6{fill:#0096CC;}
	.st7{fill:#EEAFAB;}
	.st8{fill:#D12E32;}
	.st9{fill:#64A0BA;}
</style>
<g id="Layer_1">
</g>
<g id="Layer_2">
</g>
<g id="Layer_3">
	<g>
		<path class="st2" d="M212.7,1406c9.6,13.6,22.5,22.5,37.9,28.3c14.1,5.3,29.5,6.8,44.4,8.1c4.1,0.4,8.1,0.7,12.2,1H1643
			c-19.7-41.8-39.4-83.7-59.1-125.5c-18.6-39.4-35.6-80.6-66.5-112.4c-31.1-32-73.2-49.9-115.1-63.2
			c-40.4-12.9-81.7-25.5-123.7-31.4c-27.7-3.9-54.7-5.7-82.5-2.2c-25.6,3.2-50.8,8.8-76.2,12.7c-27.5,3-55,0.9-82.6,1.6
			c-29.4,0.7-58.2,6.7-87.2,11c-28.9,3.3-57.8,2.9-86.7-0.5c-73.3-11-142.8-38.8-211.2-66.6c-9.6-3.9-24.1-1.2-33.5,3.6
			c-2.7-0.4-5.4-0.7-8-1.1c-6.6,0-12.9,1.4-18.8,4.1c-2.4,0.7-4.8,1.3-7.2,1.8c-18.4,1.4-37-0.3-55.4,0.9c-7.1,0.5-14.3,1.1-21.4,2
			c0.1-1.2,0.1-2.4,0.1-3.6c-0.5-11.9-4.4-24.2-13.5-32.5c-9-8.3-20.1-13.5-32.5-13.5c-11.8,0-24.2,5.1-32.5,13.5
			c-8,8-14,21.1-13.5,32.5c0.4,8.1,2.3,16.5,6.4,23.6c-29,10.5-56.9,24.6-81.9,42.1c-66.7,46.6-118.9,114.2-140,193.5
			c-2.1,7.9-4.2,16.3-4,24.5c0.2,9.7,2.7,19,7.3,27.2C205.2,1392.6,208.2,1399.6,212.7,1406z"/>
		<path class="st7" d="M1151.2,471c-11.1-12.6-22.8-24.7-34.6-36.6c-8.4-8.5-19.6-13.1-31.1-13.9c-6.7-5-13.5-9.9-20.4-14.5
			c-17-11.3-35.1-20.8-53.7-29c-0.2-0.1-0.4-0.2-0.5-0.3c-18.6-13.8-44.4-18.6-67.1-16.6c-21.2,1.9-41.1,7-61.2,13.7
			c-38.1,12.6-75.8,26.1-112.2,43c-35.8,16.6-69.6,37.5-99.1,63.9c-19.4,17.3-42.8,39.3-42.5,67.3c0.2,12.8,4.3,24.4,9.2,35.8
			c-14.1,9.9-20.8,29.3-15.1,46.1c2.3,6.9,5.6,13.3,9.6,19.4c2.3,3.5,4.7,6.8,6.7,10.5c0.8,2.6,1.4,5.2,1.9,7.9
			c0.6,6.1,0.9,12.2,1.5,18.3c1.2,12.3,3.2,22.6,8.2,33.8c4.8,10.7,13,18.7,22.4,25.3c3,2.1,6.1,4.1,9.3,5.9
			c3.2,10.7,3.4,22.3,6.3,33.2c1.6,6.1,3.6,12.1,5.9,18c-0.4,12.9-0.7,25.9,0.1,38.8c1.1,18.4,4.9,36.2,7.8,54.3
			c0.4,5,0.4,9.9,0.2,14.8c-7.5,6.4-13.4,14.5-15.8,24.3c-3.8,16-4.1,31.7-2.3,47.9c0.7,6.5,1.6,13,2,19.6
			c-2.4,5.1-4.8,10.5-5.9,16.1c-2.7,13.4-1.8,18.2,0.1,31.8c1.6,3.9,3.3,7.8,4.9,11.7c2.6,3.3,5.1,6.6,7.7,9.9
			c3.1,3.1,6.7,5.7,10.4,7.8c-0.3,3.7-0.4,7.4-0.5,11.1c-0.2,36.5,13.8,72.4,45.7,92.3c5.9,3.7,13.1,4.8,20,3.7
			c3.8,2.5,8,4.4,12.4,5.3c6.7,1.3,13.3,2.6,20,4c10.2,2,20.4,1.9,29.9-1.9c8.7,2,17.4,3.7,26.1,5.1c19,3.1,38.2,5.8,57.4,6.9
			c10.4,0.6,21.7-0.3,31.5-4.2c6.5-2.6,13.1-5.1,18.8-9.2c5.7-4,11.2-8.4,16.5-13c2.4-2.1,4.8-4.2,7.1-6.3l24.2-0.9
			c12.9-0.5,25.8-1,38.8-1.5c18.8-0.7,38.1-0.5,55-10.3c14-8.2,23.5-21.1,28.5-36.3c3-9,3.6-18.9,3.6-28.4c0-12.9-0.3-25.8-1-38.6
			c-1.8-32.6-5.8-65.3-11.5-97.4c-2.1-11.8-4.7-23.4-7.3-35.1c5.3-9.1,10.5-18.1,15.7-27.2c4.2-6,7.8-12.4,10.7-19.1
			c7.8-14.3,15.1-28.7,21.6-43.7c8.7-19.9,16.7-40,22-61.1c0.3-1.4,0.6-2.8,0.9-4.2c6.6-7.9,12.4-16.5,16.7-25.7
			c8.5-18.3,13.2-35.5,14.2-55.9c0.1-1.1,0.1-2.2,0.1-3.4c6.9-8.4,11.1-19.2,11.6-31C1235.7,582.8,1195.8,521.5,1151.2,471z
			 M701.7,665.6c-0.1-1.3-0.2-2.5-0.4-3.8c0.7-0.2,1.4-0.4,2-0.6C702.8,662.6,702.2,664.1,701.7,665.6z M762.1,631.6
			c0.4-0.4,0.9-0.7,1.3-1.1c-0.2,1.1-0.5,2.2-0.7,3.3c-0.8-0.3-1.7-0.5-2.5-0.8C760.9,632.6,761.5,632.1,762.1,631.6z"/>
		<path class="st4" d="M1499.8,1061.1c-4.6-22.4-18-39.4-31.7-56.7c-9.2-12.7-16.6-26.5-22.9-40.8c-4-9.9-7.7-20-11.4-30.1
			c-0.7-2-1.5-3.9-2.4-5.8c0-0.9,0-1.8,0-2.7c-0.6-12.6-4.7-25.9-14.4-34.6c-5.2-4.7-10.1-9.8-14.6-15.2
			c-7.9-11.2-14.5-23.3-20.1-35.8c-11.3-28.4-19.1-58.2-27.2-87.6c0-0.7,0.1-1.3,0.1-2c0.5-14.6-1.1-29.2-3.4-43.5
			c1-13.1,1.6-26.3,1.4-39.5c-0.3-20.2-2.5-40.5-6.2-60.4c-3.7-19.7-10.6-38.3-19-56.5c-7.7-16.6-18.4-32.1-30.5-46.1
			c-0.2-7.9-2.1-15.7-6.6-21.8c-2.3-3.1-4.3-6.4-6-9.7c-3.6-10.2-6-20.9-9.3-31.2c-5.1-16.2-11.7-32.1-19-47.4
			c-10.9-23-25.2-44.3-41.3-64c-3.3-11.4-10.8-21.6-21.9-28.9c-43.1-28-92.4-46.2-141.9-59.2c-23.6-6.2-47.5-11.3-71.5-16
			c-27.4-5.4-54.9-10.8-82.7-13.9c-13.5-1.5-27.1-2.1-40.6-0.9c-10.6,1-21.5,2.3-31.9,4.8c-8.5,2.1-16.6,5.4-24.6,8.8
			c-7.3,0.4-14.5,2.3-20.7,6.3c-38,9.6-65.9,37.8-89.4,68.8c-2.3,1.9-4.6,3.9-6.9,5.9c-14.3,12.1-28.1,24.3-41,37.6
			c-1.2,0.9-2.3,1.9-3.5,2.9c-1.8,1.6-3.7,3.3-5.5,4.9c-4.4,1-8.7,2.7-12.6,5.3c-10.4,6.7-19.9,16.8-22.5,29.3
			c-2.5,12.1-6,23.8-10.5,35.3c-6.2,13.6-13.7,26.5-22.5,38.6c-8.5,10.2-18.1,19.5-25.8,30.3c-9.2,12.9-12.1,29.1-16.3,44.1
			c-5.6,19.9-12.2,39.5-19.7,58.7c-0.5,0.3-1,0.5-1.5,0.8c-20.8,11.6-35.4,32.7-41.8,55.4c-4.4,15.9-4.4,31.8-2.9,47.8
			c-1,2.2-1.8,4.6-2.4,7c-2.9,12.9-1.8,26.1,4.9,37.8c0.9,1.5,1.7,3.1,2.5,4.7c0.5,1.6,1,3.2,1.5,4.8c0.8,6.8,1.7,13.5,2.5,20.3
			c0,5.3-0.3,10.6-0.8,15.9c-2.7,16.2-7,32.3-12.9,47.7c-3.3,7-7,13.7-11.3,20c-5,5.6-10.5,10.5-16.1,15.6
			c-6.1,5.6-11.7,12.4-16,19.5c-5.9,9.8-8.3,19.2-9.7,30.2c-1.7,12.8-0.3,24.8,1,37.6c1.2,11.7,2.4,23.3,3.6,35
			c-0.3,6.7,1.2,13,4.2,18.9c1.7,5.2,4.5,9.9,8.3,13.9c-4.3,1-8.3,2.7-11.7,5.3c-6.6,5.1-13.4,9.9-19.2,15.9
			c-5.7,6-10.8,12.7-15.5,19.5c-7.4,10.7-12.9,23.6-16.3,36.2c-3,11.4-4.5,24-1.2,35.6c4.9,17.1,15.8,29.9,32,36.8
			c7.7,3.2,15.7,4.6,23.5,4.1c-3.4-10.3-4.8-21.4-3.9-31.4c1.9-21.5,9.4-41.7,25.3-57c1.9-1.8,3.9-3.4,5.9-4.9
			c5.5-5,12.4-8.6,19.4-10.9c1.9-0.6,3.9-1,6-1.3c7.3-1.4,15.2-1.2,21.7,0.6c10.3,2.8,22.7,11.2,27.5,21.1c0.6,1.3,1.3,2.5,2,3.7
			c2.6,2.7,5.3,5.1,8.2,7.5c6.5,4.9,13.1,9.8,19.4,15.1c7.5,6.5,13.9,14.7,19.2,23c6.9,10.9,11,22.9,12.1,35.1
			c2.4,0.1,4.9,0,7.3-0.1c17.2-1.1,34.3-4.7,51.2-7.7c14.9-2.6,29.7-5.3,44.6-7.9c3-0.5,6-1.7,8.9-3.2c7.5-0.7,15-3.1,20.8-6.5
			c10.2-5.9,19.9-17.6,22.5-29.3c2.9-12.5,2.2-26.6-4.9-37.8c-0.7-1.1-1.4-2.1-2.2-3.1c0.1-1.3,0.2-2.6,0.2-3.9c0-3-0.3-6-0.9-9.2
			c9.7-13.9,19-28.2,25.8-43.8c4.9-11.4,9.7-22.6,11.9-34.9c1.4-7.9,2.7-16.4,2.8-24.5c0.1-5.2-0.5-10.4-1.2-15.5
			c0.2-0.4,0.4-0.7,0.6-1.1c2.1-3.7,3.9-7.6,4.7-11.8c2-11.6-4.7-21.2-9.8-31c-9.7-18.3-19.3-36.5-29-54.8
			c-2.4-4.5-7.3-6.9-12.2-7.1c1.1-3.7,0.8-7.7-1.5-10.8c-1.4-1.9-2.6-3.9-3.7-6c0.3,0.4-1-2.5-1-2.6c-0.4-1.2-0.7-2.4-1-3.6
			c-0.3-1.2-0.6-2.5-0.8-3.7c-0.1-0.3-0.5-3.1-0.5-2.9c-0.2-1.3-0.5-5.1-0.6-7.2c-0.7-10.9-0.7-22.2-3.5-32.8
			c-4-14.9-13.8-30.5-27.9-37c-4.4-7.1-8.7-14.3-13.1-21.4c-1.4-2.3-3.4-4.1-5.7-5.3c-0.8-15.6-2.3-31.5-6.6-46.5
			c-2.9-10-6.9-20.1-12.5-28.9c-3.7-5.7-7.5-10.6-11.7-15c0.3-2,0.3-4.1-0.1-6.1c-0.1-0.4-0.1-0.7-0.2-0.9c0-0.2,0-0.4,0-0.6
			c0-0.9-0.1-1.8-0.1-2.7c0-1,0.1-2,0.2-3.1c0-0.2,0.2-1.1,0.4-1.8c0.3-1.1,0.5-2.2,0.9-3.3c0,0,0.5-1.4,0.7-2.1
			c0.3-0.6,0.8-1.8,0.9-1.9c0.6-1.2,1.3-2.4,2-3.5c0.1-0.2,0.9-1.2,1.3-1.8c0.5-0.5,1.3-1.5,1.4-1.7c0.8-0.8,1.6-1.6,2.4-2.4
			c0.4-0.4,1.3-1.2,1.4-1.3c0.2-0.1,0.3-0.2,0.5-0.4c0.2,0,0.4,0.1,0.5,0.1l17.7,1.6c0.5,0.5,1.1,0.9,1.9,1.2
			c7.5,3.6,14.3,8.1,20.3,13.6c0.1,5,3.9,7.5,7.9,7.6c0,0.8-0.1,1.7-0.3,2.5c-0.8,3.4,1,7,4.5,8c3.3,0.9,7.2-1.1,8-4.5
			c1.5-6.9,0.5-14-3.4-20.1c-0.2-0.3-0.5-0.7-0.7-0.9v-10.7c0-0.5,0-0.9-0.1-1.3c1.5-1.5,2.9-3.4,4-5.7c4.4-8.8,5-20.4,4.4-30.2
			c-0.4-7.9-1.8-15.6-4.2-23.1c0.1-0.6,0.2-1.2,0.3-1.8c3.2-1,6.2-2.5,9-4.3c54.3-36.6,110.2-70.8,167.6-102.2
			c0.3-0.2,0.7-0.4,1-0.5c35.2-7.4,69.6-18.6,103.8-29.7c0.7-0.2,1.4-0.5,2.1-0.7c2,0.2,4,0.4,5.9,0.6c18,2.9,35.7,7.6,52.7,14.2
			c4.2,1.9,8.4,3.9,12.5,6.1c4.4,2.3,9.1,4.1,13.9,5.2c4.7,3.5,9.9,6.2,15.8,7.8c2.8,0.8,5.5,1.7,8.2,2.7
			c7.1,3.5,13.9,7.5,20.3,12.1c10.1,8.5,19.2,18.1,27.6,28.3c14,19.1,25.5,39.8,36.9,60.6c-0.3,21.6-2.6,42.8-7,63.9
			c-1,4.6,0.1,9.3,2.7,12.8v18.3c0,8.4,13,8.4,13,0v-0.6c1.2-0.7,2.1-2,2.5-3.8c0.8-3.6,2.2-7,4-10.1c3.7,0,7.4-1.5,10.3-4.1
			c0.3-0.3,0.6-0.5,0.7-0.7c0.1,0,0.2-0.1,0.3-0.2c0.8-0.5,1.7-1,2.5-1.5c-0.5,0.3,2.2-0.9,2.5-0.9c0.8-0.2,1.6-0.4,2.4-0.6
			c-1.7,0.4,1.9-0.2,2.3-0.2c0.8,0,1.6,0,2.3,0.1c-1.4,0,2,0.4,2.3,0.5c0.3,0.1,2.7,1,2.6,0.9c2,1,4,2.6,5.4,4.5
			c0.7,5.7,1.3,11.4,1.6,17.1c0.2,3,0.2,6.1,0.2,9.1c0,1.4-0.1,2.7-0.2,4.1c0-0.1-0.4,3.6-0.3,3c-0.9,5.8-2.2,9.9-4.7,14.2
			c-3.2,5.4-7.6,10-10.4,15.6c-6.2,12.6-9,27.3-12.9,40.8c-2.9,10-5.8,20-8.6,29.9c-5.7,8.6-12.8,15.4-21.6,20.9
			c-3.1,1.9-5.3,4.9-6.4,8.3c-0.4,0.4-0.8,0.9-1.2,1.4c-2.6,1.8-4.6,4.4-5.2,7.6c-4.7,25.4-9.4,50.9-14.1,76.3
			c-6.9,13-14.7,25.5-23.5,37.3c-1.1,1.3-2.1,2.6-3.2,3.9c-4.9,5.8-8.8,11.8-11.4,18.4c-1.2,0-2.4,0.1-3.7,0.5
			c-3.4,0.9-7,3.5-8.7,6.7c-2.8,5.3-2.4,13,1.9,17.5c-0.6,3.2-1,6.4-1,9.6c-2.5,8.6-2.8,17.6-0.5,26.7c5.9,22.9,11.6,45.8,17.7,68.6
			c5.2,19.4,11.5,39.1,21.1,56.9c-0.1,0.8-0.2,1.6-0.3,2.4c-2.5,2.6-4.6,5.5-6.2,8.5c-6,11.4-9,25.1-4.9,37.8
			c4.1,12.6,11.5,21.9,22.5,29.3c10.1,6.8,24.1,9.9,36.1,9.5c1.8-0.1,3.6-0.2,5.3-0.4c1.2,1.2,2.4,2.5,3.6,3.8
			c5.6,5.9,11.1,11.1,17.6,16.1c12.4,9.6,27.2,16.7,42.7,18.6c3,1.6,6.1,2.8,9.4,3.5c12.2,2.8,27.2,2.6,37.8-4.9
			c12.9-9.2,26.5-17,40.9-23.6c11.2-4.4,22.7-7.9,34.4-10.6c4.1,2.9,8.4,5.6,13,7.7c13.1,5.9,26.3,10.7,41,10.1
			c18.5-0.8,35.3-7.2,48.8-20c7.6-7.2,13.4-16.3,17.6-25.8c4.6-10.4,9.1-20.9,12.1-31.8C1503.5,1105.9,1504.4,1083.5,1499.8,1061.1z
			"/>
		<path class="st3" d="M685.3,638.4c-4.4-16.7-22.8-27.1-39.4-22.2c-8,2.4-4.6,14.9,3.5,12.5c9.9-2.9,20.8,3.1,23.4,13.1
			C674.9,649.9,687.5,646.5,685.3,638.4z"/>
		<path class="st3" d="M990.8,790.7c-5.9-5.9-15.1,3.3-9.2,9.2c4.6,4.6,6.2,11.7,2.4,17.3c-4,5.9-10.3,6.6-16.9,6
			c-7-0.6-14.2-2.2-21.1,0.1c-3.6,1.2-6,3.3-8.8,5.8c-3,2.6-6.2,2.4-10,2.6c-3.5,0.1-7.1,0.2-10.5-0.9c-3.3-1.1-5.3-3.2-7.9-5.4
			c-6.5-5.5-11.9-6.3-20.1-4.6c-6.6,1.3-11.6-3.2-13-9.6c-1.8-7.9,1.7-16.4,4.5-23.6c3.1-7.8-9.5-11.2-12.5-3.5
			c-5.6,14.1-9.2,31.1,2.6,43.2c4.8,5,11.6,7.6,18.5,6.6c3.6-0.5,6.9-2.4,10.1-0.1c2.6,1.9,4.7,4.4,7.4,6.2
			c6.1,4.1,13.8,4.8,20.9,4.6c3.7-0.1,7.8-0.2,11.4-1.3c3.7-1.2,6-3.8,8.9-6.1c5.2-4.3,13.6-1.6,19.7-1.1c7,0.6,14.1-0.2,20.1-4.2
			C1001.4,822.5,1002.8,802.6,990.8,790.7z"/>
		<path class="st3" d="M1059,948.5c-1.6,0-3,0.5-3.9,1.3c-1.8-0.3-3.6,0.2-5.2,2c-5.3,6.1-11.8,10.9-19.4,13.7
			c-1.8,0.7-3,1.8-3.7,3.2c-15.1,13.2-32.8,23.2-52,29.3c0,0,0,0-0.1,0c-1.8-1.4-4.2-1.8-6.8-0.1c-10.8,7.2-20.8,13-34.3,11.6
			c-12.9-1.3-25.9-4-38.6-6.6c-0.7-0.4-1.6-0.6-2.5-0.7c-20.1-2.2-39.3-10.9-54.3-24.4c-1.8-1.6-3.8-2-5.7-1.6
			c-12.8-16.2-26.5-31.5-41.3-45.9c-6-5.9-15.2,3.3-9.2,9.2c14.9,14.6,28.8,30.1,41.7,46.5c1.8,2.3,4.2,2.7,6.2,1.8
			c16.7,14.8,37.1,24,59.2,27c0.5,0.2,1,0.4,1.6,0.5c14.7,3,29.8,6.3,44.8,7.4c14.2,1,26-5.2,37.5-12.7c1.3,0.9,3.1,1.2,5.1,0.6
			c21.6-6.9,41.3-18.1,58.3-33.2c0.2-0.2,0.5-0.4,0.7-0.7c8.2-3.5,15.5-8.6,21.5-15.3c0.1,0,0.2,0,0.4,0
			C1067.3,961.5,1067.4,948.5,1059,948.5z"/>
		<path class="st3" d="M1197.1,644.9c-3.3-3.5-7.2-7.2-12.2-7.7c-4.4-0.5-8.8,1.4-10.8,5.4c-2,4,4,7.6,6,3.5
			c2.9-5.7,9.7,1.3,12.1,3.7C1195.3,653.1,1200.3,648.2,1197.1,644.9z"/>
		<path class="st5" d="M797.9,664.7c-0.7-3.6-3.3-6.7-8-6.7c-4.7,0-7.4,3.1-8,6.7c-3.7,5.9-1,15.8,8,15.8
			C799,680.4,801.6,670.5,797.9,664.7z"/>
		<path class="st5" d="M1025.9,668.7c-0.7-3.6-3.3-6.7-8-6.7c-4.7,0-7.4,3.1-8,6.7c-3.7,5.9-1,15.8,8,15.8
			C1027,684.4,1029.6,674.5,1025.9,668.7z"/>
		<path class="st3" d="M540.8,1149.4c-8.6-12.6-18.2-22.1-29.5-31.2c-2.2-7.7-6.5-15.1-11.8-20.3c-8-8-21.1-14-32.5-13.5
			c-25.7,1.1-45.1,20.2-46,46c-0.2,5.7-0.3,11.4-0.3,17.1c-5.4,7.7-8.9,16.8-8.6,26.5c0.1,3.9,0.4,7.8,0.9,11.8
			c1.5,19,3,38,4.5,56.9c1,12.4,4.5,23.5,13.5,32.5c8,8,21.1,14,32.5,13.5c11.9-0.5,24.2-4.4,32.5-13.5c1.1-1.2,2.2-2.4,3.2-3.7
			c3.6-1,7.1-2.3,10.5-3.7c8.9-3.8,17.1-8.8,23.7-16.2c13.4-15,21.2-33,22-53.2C556.1,1181.6,550.2,1163.1,540.8,1149.4z"/>
		<path class="st3" d="M1087.9,1327.5c-0.5-4.1-1.1-8.2-1.6-12.2c-2.2-7.8-6.1-14.6-11.8-20.3c-0.2-0.3-0.5-0.6-0.7-0.8
			c-2.2-3-4.2-6.1-6-9.3c6-7.7,11.3-15.6,13.8-25.9c3.3-13.5,3.4-28.9-1.3-42.1c-4.6-12.9-11.3-25.4-21.8-34.5
			c-14.1-12.1-29.7-18.8-48.4-19.5c-11.5-0.4-24.5,5.4-32.5,13.5c-6.3,6.3-11.3,15.7-12.9,24.9c-9,7-17.3,14.1-23.6,24.4
			c-5.8,9.4-8.8,21.7-8.3,32.7c0.6,13.8,5.8,25.8,12.4,37.6c14.3,25.9,33.2,50.1,54.8,70.3c8.8,8.2,20.4,13.5,32.5,13.5
			c10.2,0,22.2-4.1,30.2-11.2c4.5-2.2,8.7-5.1,11.9-8.5C1082.5,1351.2,1088.4,1339.7,1087.9,1327.5z"/>
		<path class="st4" d="M762.1,1220.4c-6.5-3.1-15-3.2-22.1-3.6c-12.4-0.7-24.9,0.2-37.1,2.4c-6.5-1.6-13.1-2.7-19.9-1.8
			c-4.8,0.6-9,3.7-9,9c0,4.4,4.1,9.6,9,9c1.7-0.2,3.3-0.3,4.9-0.3c1.9,2.9,5.2,4.7,9.5,3.7c1.7-0.4,3.4-0.8,5.1-1.1
			c0.5,0.1,1.1,0.3,1.6,0.5c7.6,2.2,15.1,4,23,5c7.5,1,15.1,1.3,22.6,1.5c7,0.2,15.1,0.6,19.2-6.3
			C773,1231.3,768.8,1223.6,762.1,1220.4z M753.4,1236.2C754.6,1236.1,754.1,1237.7,753.4,1236.2L753.4,1236.2z"/>
		<path class="st4" d="M1165.4,1248.1c-9.7-4.5-19.5-8-29.7-10.4c-1.7-0.6-3.4-1.1-5.1-1.7c-5.6-1.8-11.7-4-17.6-2.5
			c-5.3,1.3-9.8,5.2-11.2,10.6c-3.5,13.6,11.4,17,21.2,18.5c10.9,1.6,21.8,2.5,32.8,2.4c2.6,0.8,5.4,0.7,7.7-0.7
			C1170.1,1261.8,1173,1251.6,1165.4,1248.1z"/>
		<path class="st4" d="M1242,1319.6c-5.2-3.5-12.3-3.7-18.7-3.7c-6.4-2.7-13-4.6-20.1-5.2c-11.3-1-23.2,2.4-31.7,10
			c-0.9,0.2-1.8,0.4-2.7,0.6c-11.3,2.5-6.5,19.9,4.8,17.4c0.6-0.1,1.1-0.2,1.7-0.4c1.5,0.1,3-0.1,4.4-0.9c8.2-1.6,16.5-2.7,24.9-3.1
			c4.9-0.3,9.9-0.4,14.8-0.3c5,2.3,9.7,5.1,13.7,7.5c3.4,2,8.1,1.4,10.9-1.4C1250,1334,1249,1324.3,1242,1319.6z"/>
		<path class="st4" d="M1509.2,1333.9c-1.5-12-11.4-15.9-21.9-18.6c-11.1-2.9-22.7-4.5-34.2-4.9c-22.8-0.8-45.9,3.3-67,12.2
			c-2.5,1.1-4.6,2.8-5.8,5.1c-4.4,1.8-7.5,6-6.1,11c1.2,4.3,6.5,8,11.1,6.3c36.1-14,75.8-14.9,112.5-2.3
			C1502.8,1344.3,1509.9,1339.6,1509.2,1333.9z"/>
		<path class="st4" d="M725.9,1335c0-0.2,0-0.4,0-0.5c-0.5-4.8-3.8-9-9-9c-4.5,0-9.5,4.1-9,9c0.8,9.1-7.4,15.8-11.4,23.2
			c-4.8,8.9-6.8,19.1-1.6,28.3c2.7,4.8,10.3,6.1,14.1,1.8c10.9-12.1,18.2-26.9,20.4-43C730,1341,729,1337.1,725.9,1335z"/>
		<path class="st4" d="M944.7,1409.9c-3.3-6-6.7-12-10-18c-5.6-10.1-21.2-1.1-15.5,9.1c3.3,6,6.7,12,10,18
			C934.8,1429.1,950.4,1420,944.7,1409.9z"/>
		<path class="st4" d="M613.2,1271.2c-16.8-4.7-36.8,1.5-51.1,10.2c-10.8,6.6-20.2,15.2-29,24.4c-6.5,4.5-12.3,9.8-16.9,16.6
			c-5.7,8.4,7.4,18.6,14.1,10.9c1.1-1.3,2.3-2.4,3.5-3.3c1-0.4,2-1,3-2c2.5-1.4,5.3-2.3,8.5-2.9c2.9-0.5,5-2.8,6-5.5
			c14.4-8.6,29.7-15.1,45.9-19.3c7.4-1.9,17.9-1.9,23.5-7.8C628.1,1284.6,622.4,1273.8,613.2,1271.2z"/>
		<path class="st4" d="M667.3,1353.6c-7.2-1-13.9-0.4-20.2,1.5c-1.6-0.5-3.3-0.6-4.9,0l-21.1,8.5c-6.4,2.6-13.7,4.6-19.5,8.3
			c-4.7,3-8.9,7.4-10,13.1c-1.3,7,3.2,13.9,10,15.7c12.7,3.4,22.9-10.6,31.4-17.6c7.9-6.5,18.6-13.7,29.4-12.2
			c4.8,0.7,9.7-1.2,11.1-6.3C674.8,1360.4,672.2,1354.3,667.3,1353.6z"/>
		<path class="st4" d="M773.5,1368.7c-4.4-13.8-10.7-26.8-19-38.7c-2.8-4-7.9-5.8-12.3-3.2c-3.9,2.3-6,8.3-3.2,12.3
			c0.1,0.1,0.1,0.2,0.2,0.3c-1,1-1.9,2.5-2.2,4.3c-3.4,16.7,9.9,28.1,23.4,35.1C766.9,1382.3,776,1376.6,773.5,1368.7z"/>
		<path class="st4" d="M401,1237.5c-8.5,0.3-16.9,3.9-22.4,10.5c-3.1,3.7-3.7,9.1,0,12.7c3.2,3.2,9.6,3.8,12.7,0
			c1.9-2.3,2.5-2.8,4.9-4.1c0.2-0.1,0.4-0.2,0.5-0.3c0.6-0.2,1.2-0.4,1.8-0.6c0.9-0.2,1.2-0.2,0.8-0.2c0.5-0.1,1.1-0.1,1.6-0.1
			c4.9-0.2,9-4,9-9C410,1241.8,405.9,1237.4,401,1237.5z"/>
		<path class="st4" d="M872.8,624.9c-29.6-33.6-84.3-37.1-118.8-9.3c-3,2.4-2.4,7.4,0,9.9c2.9,2.9,7,2.4,9.9,0
			c28.9-23.2,74.9-18.1,99.1,9.3C868.9,641.5,878.8,631.6,872.8,624.9z"/>
		<path class="st4" d="M1111.6,639.8c-28.6-34.9-84.9-42.1-121.4-15.6c-7.2,5.2-0.2,17.4,7.1,12.1c31.9-23.1,79.4-17,104.4,13.4
			C1107.4,656.7,1117.3,646.7,1111.6,639.8z"/>
		<path class="st8" d="M1000.3,885.2c-0.6-0.4-1.3-0.6-2.1-0.8c-10.3-2.5-20.9-5.1-31.6-5.2c-10.4-0.2-20.7,2.1-30.5,5.2
			c-1.9,0.6-3.8,1.2-5.8,1.9c-27-10.5-56.5-13.8-85.6-9.1c-3.8,0.6-5.8,5.2-4.9,8.6c0.3,1.3,1,2.3,1.8,3.1c0.5,1,1.3,1.9,2.5,2.7
			c5.1,3.4,7.3,10,9.7,15.4c2.7,5.9,6,11.3,10.5,16.1c8.7,9.5,20.7,15.7,33,19.1c25.2,7,55.9,3.8,76.6-13.1
			c10.5-5.8,19.3-14.9,24-25.9c0.5-1.1,0.9-2.3,1.1-3.5c0.8-0.3,1.6-0.6,2.5-0.8C1009.6,897.2,1007.3,886.1,1000.3,885.2z"/>
		<path class="st3" d="M980.3,894.4c-0.7,0-1.3,0.2-1.8,0.6c-0.4-0.2-0.9-0.4-1.6-0.4c-32.7,0.1-65.5-0.2-98.2-1
			c-3.9-1.2-7.9-2.4-11.8-3.6c-3.7-1.1-5.3,4.7-1.6,5.8c3.4,1,6.7,2,10,3.1c0.5,0.4,1.1,0.7,1.8,0.7c0.1,0,0.2,0,0.4,0
			c5.6,1.7,11.3,3.4,16.9,5c9,2.5,17.9,0.1,27.2,0.8c9.9,0.8,19.5,2.3,29.4,1.5c8.6-0.7,16.9-2.7,24.9-5.8c0.4,0.2,0.8,0.3,1.3,0.3
			c1,0,1.8-0.4,2.3-1.1c0.2,0,0.5,0.1,0.7,0.1C984.1,900.4,984.1,894.4,980.3,894.4z"/>
		<g>
			<path class="st9" d="M1088.4,504.4c-3.3-14.5-6.6-29-9.9-43.5c-0.9-3.8-6.6-2.2-5.8,1.6c0.6,2.8,1.3,5.5,1.9,8.3
				c-6.4,9-9.4,20.2-8.1,31.2c0.9,7.8,4.6,22.7,14.8,22.8C1092.3,525.1,1089.9,511.2,1088.4,504.4z M1074.6,491.4
				c1,4.5,1.9,8.9,2.9,13.4C1075.4,500.7,1074.3,496,1074.6,491.4z M1076.5,479.2c0.3,1.2,0.5,2.3,0.8,3.5c-0.9-0.2-1.9,0.1-2.6,0.7
				C1075.1,482,1075.8,480.6,1076.5,479.2z M1075,511.7c1.8,2.3,3.9,4.5,6.4,6.3c0.3,0.2,0.7,0.4,1,0.5
				C1079.7,520.5,1076.7,515.4,1075,511.7z"/>
			<path class="st9" d="M1106.7,745.1c0.1-0.9,0.1-1.8,0.1-2.7c0-1-0.5-1.8-1.1-2.3c-1.1-3.5-6.6-1.9-5.7,1.8
				c0.3,1.3,0.5,2.5,0.6,3.8c-1.1,6.6-5.6,12.1-8.9,17.9c-3.1,5.5-4.9,11.3-5.2,17.4c-1.1,2.4-2.2,4.7-3.3,7.1
				c-3.1,7,0.2,14,8.4,14.6c8.5,0.6,13.2-7.4,14.7-14.7c1.1-5,1.5-10.1,1.5-15.2c0.7-3.4,1.4-6.7,1.9-10.1c0.1-0.4,0-0.8,0-1.2
				C1110.9,755.8,1110.7,750.2,1106.7,745.1z"/>
			<path class="st9" d="M1074.9,1063.5c-3.5-9-10.5-16-14.7-24.6c-0.8-1.6-2.2-1.8-3.5-1.3c-0.3-0.7-0.6-1.5-1-2.2
				c-1.8-3.4-7-0.4-5.2,3c4.6,8.5,2.9,18.8,4.1,28.3c-0.2,4.6,0.1,9.3,1.7,13.7c1.4,3.8,3.7,7,6.5,9.9c1.9,2,4.2,5.1,7.3,4.6
				c1.1-0.2,2-0.7,2.6-1.6c1.1-0.2,2-1.1,2.4-2.2C1078.3,1082.3,1078.4,1072.4,1074.9,1063.5z"/>
			<path class="st9" d="M821.5,866c-1.3-5.7-3.4-11.2-6.1-16.4c-2.9-5.4-7.4-10-8.9-16c-0.9-3.7-6.7-2.2-5.8,1.6
				c0.2,0.9,0.5,1.7,0.8,2.5c-0.1,0.2-0.1,0.3-0.2,0.5c-1.5,6.5-2.6,13-3.3,19.7c-0.6,5.8-1.6,12.3,0.4,17.9
				c1.6,4.4,4.7,7.9,8.3,10.8c2.9,2.3,7.8,6.4,11.8,5.4c4.1-1,4.4-5.9,4.6-9.4C823.3,877.1,822.7,871.5,821.5,866z"/>
			<path class="st9" d="M775.1,517.7c-3.1,5.2-6.1,10.4-9.3,15.5c-2.7,4.4-6.7,7.6-9.5,11.8c-3.6,5.4-4.8,17.2,1.9,21.1
				c6.3,3.7,14.4-6.1,16.4-11.1c1.8-4.8,2.1-10.1,2.9-15.1c1-6.4,2-12.9,2.9-19.3c0-0.1,0-0.1,0-0.2
				C782,517.3,777,514.5,775.1,517.7z"/>
		</g>
		<path class="st3" d="M596.7,1443.4c-0.1-3.4-0.6-6.8-1.6-9.9c-3.6-11.1-10.5-21.9-21.1-27.5c-3.7-1.5-7.3-3.1-11-4.6
			c-8.2-2.2-16.3-2.2-24.5,0c-24,4.1-48,8.3-71.9,12.4c-10.7,1.9-22.2,12.1-27.5,21.1c-1.5,2.5-2.8,5.4-3.8,8.4H596.7z"/>
		<path class="st3" d="M818.6,1433.9c2,3.6,4.5,6.7,7.2,9.6h159c-3.8-15.7-4.4-33-7.6-47.9c-3.2-15.6-9.1-30-19.6-42.1
			c-11.8-13.7-27.4-24.9-42.7-34.3c-10.3-6.3-21.1-11.7-32.3-16.4l-4.5-4.5c-0.4-0.4-0.8-0.8-1.3-1.2c-0.2-0.1-0.4-0.3-0.5-0.4
			c-0.3-0.2-0.6-0.4-0.8-0.6c-0.2-0.2-0.5-0.3-0.7-0.4c-0.2-0.1-0.5-0.3-0.7-0.4c-0.3-0.2-0.6-0.3-0.9-0.4c-0.2-0.1-0.4-0.2-0.6-0.3
			c-0.3-0.1-0.7-0.3-1.1-0.4c-0.2-0.1-0.3-0.1-0.5-0.2c-0.4-0.1-0.8-0.2-1.2-0.4c-0.1,0-0.2-0.1-0.4-0.1c-0.4-0.1-0.9-0.2-1.3-0.3
			c-0.1,0-0.1,0-0.2,0c-0.5-0.1-1-0.1-1.5-0.2l0,0c-2.5-7.4-14.9-9.1-17.2,0.2c-4.6,18.4-18.9,32.1-28.3,48.1
			c-5.6,9.4-9.2,19.5-10.2,30.4c-0.9,10.3,0.6,20.6,2.4,30.8C811.6,1413.1,812.8,1423.8,818.6,1433.9z M960.7,1403.9
			c0.3,1.5,0.6,3,0.8,4.5c-0.3-1-0.7-1.9-1-2.9C960.6,1405.1,960.7,1404.5,960.7,1403.9z"/>
		<path class="st3" d="M1096,1443.4h153.2c-0.6-5.3-1.4-10.5-2.3-15.7c-5.6-32.4-23.3-64.6-47.6-86.8c-9-8.2-20.2-13.5-32.5-13.5
			c-11.3,0-24.8,5-32.5,13.5c-1.7,1.9-3.3,3.9-4.8,6c-6.7,2.1-13,5.6-17.8,10.9c-8.1,8.8-13.9,20.2-13.5,32.5
			C1098.7,1408.1,1098,1425.8,1096,1443.4z"/>
		<path class="st2" d="M164.8,1439.8c6.5,1.4,13.1,2.6,19.7,3.7h94.9c3.2-3.5,5.1-8.1,4.9-12.8c-0.5-10.9-8.6-19-19.5-19.5
			c-7.5-0.3-1.4-31-9-31.4c-0.6-0.1-28.9-14.5-29.6-14.6c15.6-24,5.2-8.8,10.6-37c1.9-10-2.8-21.5-13.6-24
			c-10.8-2.5-20.5,3.3-24,13.6c-0.2,0.7-0.5,1.4-0.7,2.1c-0.1,0.1-0.1,0.2-0.2,0.4c-1,1.8-1.9,3.6-2.9,5.4c-1.1,1.8-2.2,3.5-3.4,5.1
			c-0.4,0.6-3.1,4.1-2.7,3.5c-5.6,7-11.5,13.8-16.8,21c-9.6,12.9-15.9,28.7-15.6,45.1c0,1.9,0.2,3.8,0.4,5.6
			c-0.4,0.4-0.7,0.9-1.1,1.3C147.1,1417.5,149.6,1436.5,164.8,1439.8z M243.5,1388c-8.2,8.1-17.6,19.3-22,19.4
			c-3.1,0.1-6.1,0.3-9.2,0.5C211.1,1407.8,230.2,1396.3,243.5,1388z"/>
		<path class="st4" d="M939.1,1322.9c-11.8-12-25.4-22.4-39.9-30.8c-16.7-9.6-34.9-16.6-53.8-20.7c-11.3-2.4-16.1,14.9-4.8,17.4
			c1.1,0.2,2.2,0.5,3.3,0.7c0.4,0.3,0.9,0.6,1.4,0.9c17.1,9,34.3,17.8,51.2,27.1c13.3,7.3,27.2,15.8,35,29.3c2.6,4.4,6.6,7.7,12,6.2
			c4.6-1.3,7.6-5.6,7.7-10.3C951.6,1334.4,944.4,1328.3,939.1,1322.9z"/>
		<path class="st4" d="M882,1394.4c-1.8-3-4.4-4.2-7-4.3c-1.6-3.9-4.6-7.2-8.2-9.6c-6.3-4.2-13.9-6.9-20.7-10.1
			c-7.6-3.6-15.3-7.2-22.9-10.8c-1.7-0.8-3.5-1.2-5.2-1.1c-1.7-2.6-3.4-5.2-5-7.9c-6-9.9-21.6-0.9-15.5,9.1
			c7.9,13.1,17.3,25.4,28,36.3c6.5,6.6,14.6,14.9,23.9,17.8c2.3,3.9,5.5,6.8,10,8.5c1.2,0.4,2.4,0.8,3.6,1c0.8,0.2,1.7,0.3,2.5,0.3
			c3.1,0.1,6.3-0.5,9.1-1.9C884.2,1416.6,887.6,1403.7,882,1394.4z"/>
		<path class="st2" d="M1086.5,1185.2c-11.5-5.9-23.1-11.8-35.2-16.3c-12.8-4.8-25.9-7-39.4-8.4c-11.6-1.3-23.8-2.4-33.1,6.3
			c-4.3,4-7.2,9-11.9,12.7c-4.7,3.7-10.1,6.6-15.4,9.4c-2.1,1.2-3.3,2.8-3.7,4.6c-1.2,0.6-2.2,1.6-2.9,2.9c-0.5,0.9-1,1.9-1.6,2.8
			c-0.3,0.4-0.5,0.8-0.8,1.2c-0.1,0.2-0.3,0.4-0.5,0.6c-1.5,1.7-3.1,3.3-4.9,4.7c-3.3,2.6-2.9,8.6,0,11.3c3.5,3.2,7.8,2.8,11.3,0
			c4.2-3.4,7.8-7.7,10.3-12.5c0.3-0.5,0.5-1.1,0.7-1.6c0.1,0,0.2-0.1,0.2-0.1c9.4-5.1,18.8-10.6,25.6-19c3.2-3.9,5.6-7.6,11-8.2
			c5.1-0.6,10.5,0.4,15.6,0.9c11.8,1.3,23.2,3.5,34.3,7.6c11.1,4.1,21.7,9.6,32.2,15C1087.5,1203.8,1095.6,1190,1086.5,1185.2z"/>
	</g>
</g>
</svg>
