<?xml version="1.0" encoding="utf-8"?>
<!-- Generator: Adobe Illustrator 22.0.1, SVG Export Plug-In . SVG Version: 6.00 Build 0)  -->
<svg version="1.1" id="Layer_1" xmlns="http://www.w3.org/2000/svg" xmlns:xlink="http://www.w3.org/1999/xlink" x="0px" y="0px"
	 viewBox="0 0 718 270.1" style="enable-background:new 0 0 718 270.1;" xml:space="preserve">
<style type="text/css">
	.st0{fill:#73D5F6;}
	.st1{fill:#FFFFFF;}
	.st2{fill:#4CBD9F;stroke:#FFFFFF;stroke-width:2;stroke-miterlimit:10;}
	.st3{fill:#EF533F;stroke:#FFFFFF;stroke-width:2;stroke-miterlimit:10;}
	.st4{fill:#0096CC;}
</style>
<g>
	<path class="st1" d="M7.3,177.8c0-2.7,2.4-5.1,5.1-5.1h1.2c2.2,0,3.8,1.2,4.8,2.7l32.7,49.1l32.7-49.1c1-1.7,2.7-2.7,4.8-2.7h1.2
		c2.7,0,5.1,2.4,5.1,5.1V260c0,2.9-2.4,5.2-5.1,5.2c-2.9,0-5.2-2.5-5.2-5.2v-68.2l-29.3,43c-1.2,1.7-2.5,2.6-4.3,2.6
		s-3.3-0.9-4.4-2.6l-29.1-42.9v68.2c0,2.9-2.2,5.1-5.1,5.1c-2.7,0-5-2.2-5-5.1V177.8z"/>
	<path class="st1" d="M116.7,219.1v-0.3c0-25.2,18.9-47.3,46.8-47.3c27.8,0,46.5,21.8,46.5,47v0.3c0,25.2-18.9,47.3-46.8,47.3
		S116.7,244.3,116.7,219.1z M199.2,219.1v-0.3c0-20.8-15.2-37.8-36.1-37.8c-20.9,0-35.8,16.7-35.8,37.5v0.3
		c0,20.8,15.2,37.8,36.1,37.8C184.3,256.6,199.2,239.8,199.2,219.1z"/>
	<path class="st1" d="M231.8,177.8c0-2.7,2.4-5.1,5.1-5.1h1.4c2.4,0,3.8,1.2,5.2,3l55.5,70.8v-69c0-2.7,2.2-5.1,5.1-5.1
		c2.7,0,5,2.4,5,5.1v82.6c0,2.7-2,4.8-4.7,4.8h-0.5c-2.2,0-3.8-1.3-5.4-3.1l-56.7-72.5v70.8c0,2.7-2.2,5.1-5.1,5.1
		c-2.7,0-5-2.4-5-5.1V177.8z"/>
	<path class="st1" d="M335.9,177.7c0-2.9,2.4-5.2,5.1-5.2c2.9,0,5.2,2.4,5.2,5.2V260c0,2.9-2.4,5.2-5.2,5.2c-2.7,0-5.1-2.4-5.1-5.2
		V177.7z"/>
	<path class="st1" d="M373,177.7c0-2.9,2.4-5.2,5.1-5.2c2.9,0,5.2,2.4,5.2,5.2v50l52.1-53.4c1.2-1,2.4-1.8,4.1-1.8
		c2.7,0,5,2.5,5,5.1c0,1.4-0.7,2.6-1.7,3.7l-32.4,32.1l34.8,42.9c0.9,1.2,1.4,2.2,1.4,3.8c0,2.7-2.4,5.2-5.2,5.2c-2,0-3.3-1-4.2-2.4
		l-34.1-42.5l-19.7,19.7V260c0,2.9-2.4,5.2-5.2,5.2c-2.7,0-5.1-2.4-5.1-5.2V177.7z"/>
	<path class="st1" d="M466.3,259.3v-81c0-2.9,2.4-5.2,5.1-5.2h56.8c2.6,0,4.7,2.1,4.7,4.7s-2.1,4.7-4.7,4.7h-51.6v31.2h45.7
		c2.6,0,4.7,2.2,4.7,4.7c0,2.6-2.1,4.7-4.7,4.7h-45.7v32h52.3c2.6,0,4.7,2.1,4.7,4.7s-2.1,4.7-4.7,4.7h-57.5
		C468.7,264.5,466.3,262.2,466.3,259.3z"/>
	<path class="st1" d="M553.8,178.3c0-2.9,2.4-5.2,5.1-5.2h34.2c11.2,0,20.3,3.4,26,9.1c4.4,4.4,7.1,10.8,7.1,18v0.3
		c0,15-10.2,23.8-24.4,26.5l22.7,29.3c1,1.2,1.7,2.4,1.7,3.8c0,2.7-2.6,5.1-5.2,5.1c-2.1,0-3.7-1.2-4.8-2.7L590.4,229h-26.3v31
		c0,2.9-2.4,5.2-5.2,5.2c-2.7,0-5.1-2.4-5.1-5.2V178.3z M592.3,219.7c13.7,0,23.5-7.1,23.5-18.8v-0.3c0-11.2-8.6-18-23.4-18h-28.2
		v37.1H592.3z"/>
	<path class="st1" d="M645,253.6c-1.2-0.8-2-2.2-2-3.9c0-2.9,2.2-5.1,5-5.1c1.3,0,2.5,0.5,3.1,1.2c8.6,7.3,17.2,10.8,28.9,10.8
		c12.3,0,20.4-6.5,20.4-15.5v-0.3c0-8.5-4.6-13.3-23.8-17.4c-21-4.6-30.7-11.4-30.7-26.4v-0.3c0-14.4,12.7-25,30.1-25
		c12,0,20.8,3,29.1,9c1,0.8,2.2,2.2,2.2,4.2c0,2.7-2.2,5-5,5c-1.2,0-2.1-0.3-3-0.9c-7.7-5.6-15.2-8-23.6-8
		c-11.9,0-19.5,6.5-19.5,14.8v0.3c0,8.6,4.7,13.5,24.8,17.8c20.4,4.4,29.8,11.9,29.8,25.9v0.3c0,15.7-13.1,25.9-31.2,25.9
		C666.3,265.8,655.2,261.7,645,253.6z"/>
</g>
<circle class="st1" cx="319.3" cy="28.9" r="22.2"/>
<circle class="st1" cx="401.4" cy="28.9" r="22.2"/>
<path class="st4" d="M303.6,123.7c-3.3,0-5.9-2.9-5.6-6.1c3.2-31.7,30-56.5,62.5-56.4s59.2,24.9,62.2,56.7c0.3,3.3-2.3,6.1-5.6,6.1
	L303.6,123.7z"/>
<circle class="st4" cx="319.3" cy="28.9" r="11.7"/>
<circle class="st4" cx="401.4" cy="28.9" r="11.7"/>
</svg>
