<?xml version="1.0" encoding="utf-8"?>
<!-- Generator: Adobe Illustrator 22.0.1, SVG Export Plug-In . SVG Version: 6.00 Build 0)  -->
<svg version="1.1" xmlns="http://www.w3.org/2000/svg" xmlns:xlink="http://www.w3.org/1999/xlink" x="0px" y="0px"
	 viewBox="0 0 1793.9 1426.6" style="enable-background:new 0 0 1793.9 1426.6;" xml:space="preserve">
<style type="text/css">
	.st0{fill:#FBD740;}
	.st1{fill:#F4E6E3;}
	.st2{fill:#272825;}
	.st3{fill:#7F946E;}
	.st4{fill:#EEAFAB;}
	.st5{fill:#D12E32;}
	.st6{fill:#64A0BA;}
</style>
<g id="Layer_1">
</g>
<g id="Layer_2">
	<g>
		<path class="st0" d="M1638.9,1419.6c-22.8-54.2-47.3-107.8-80-156.9c-17-25.5-35.9-50.1-56.8-72.6c-20.6-22.1-43.6-41.6-68.1-59.3
			c-27.1-19.6-56.9-34.4-88.3-46c-3.4-1.2-7.1-1.9-11-2.1c-11.5-6.4-23.7-11.5-36.1-16c-1.6-0.6-3.3-1.1-4.9-1.6
			c-4-1.6-8-3.1-12.1-4.6c-40.9-14.8-82.9-26.7-124.4-39.8c-6.1-1.9-13-2.4-19.9-1.7c-2-0.9-4-1.6-6-2.3c1.6-5.2,2.4-10.7,2.4-16.3
			c0.7-8.5,1.5-16.9,2.5-25.3c0.4-1.2,0.8-2.4,1.1-3.7c8.2-26,16.6-51.9,25.3-77.8c2.9-8.6,2.6-19,0.2-28.6
			c3.7-10.9,7.7-21.7,12.1-32.4c9.7-22,20.9-43.2,32.1-64.4c13.7-26.1,27.1-53.6,32.7-82.8c1.6-8.1,2.1-16.1,1-23.9
			c7.5-28.5,12.5-57.7,15.7-87.2c2.8-25.8,3.4-51.7,2-77.6c-0.1-1.5-0.2-3.1-0.4-4.6c1.1-5.2,2.5-10.4,4.3-15.5c0.5-1,1-2,1.5-2.9
			c6.3-11.8,9-25.5,6.7-38.6c0.2-22.7-2.2-45-5.2-67.5c-1.2-5-3.2-9.6-5.9-13.7c0.1-0.3,0.2-0.5,0.3-0.8
			c10.2-32.2,17.7-64.9,20.5-98.7c1.6-18.9,0-37.1-2.8-55.8c-2.7-18.6-9.1-35.3-17-52.4c-2.1-4.7-5.8-9-10.2-12.9
			c-7.5-10-17.8-18.3-30.3-21.2c-15.2-3.5-29.2-1.5-43.2,5.6c-38.8,19.7-76.9,47.9-87.3,92.8c-0.1,0.6-0.3,1.3-0.4,1.9
			c-0.9-0.3-1.8-0.5-2.7-0.8c-27.9-8.2-56.3-14.5-85.1-18.9c-62.1-9.5-124.5-12.5-187-5.5c-36.9,4.1-73.5,10.2-109.5,19.8
			c-0.9,0.2-1.8,0.5-2.7,0.8c-9.2-23.7-25.6-42.8-45.1-58.8c-2.6-4.3-5.7-8.5-9.6-13.1c-8.4-10-23.2-19.2-36.1-21.3
			c-3.7-1.2-7.3-1.8-11-2c-3.9-1.8-8.2-2.7-12.5-2.6c-12.3-6.1-27.9-2.8-35,9.6c-8.7,15.2-15.3,31.8-19.3,48.9
			c-11.3,33.7-2.8,71.8,10.4,103.7c4,9.7,8.3,19.3,12.8,28.9c3.4,7.4,7.9,15,10.3,22.8c-2.1-7.1,0.2,0.5,0.8,2c0.5,1.3,1,2.7,1.5,4
			c-14.6,10.6-25.8,26.2-30.9,43.5c-19.5,28.4-35.3,59.4-44.8,92.8c-6.9,24.1-10.6,50.2-9.5,75.3c1.2,28.5,7.2,56.7,16.2,83.6
			c7.8,23.5,17.3,46.5,26.1,69.6c9,23.7,17.7,47.4,26.3,71.2c17.4,47.9,34.2,96.1,50.9,144.2c14.7,42.4,29.4,84.8,44.1,127.2
			c-18.9,2.5-37.7,5.1-56.6,7.6c-27.5,3.7-55.2,6.7-82.5,11.7c-22.4,4.1-44,10.7-65.1,19.3c-24.7,10.1-48.8,21.5-72.7,33.4
			c-18.5,9.2-37,18.4-54.9,28.7c-21.6,12.3-41.7,26.4-61,42.1c-19.1,15.5-34.7,33.7-49.2,53.4c-15.5,21.1-26.7,45-35.6,69.6
			c-9.1,25.2-13.5,52.2-14.9,78.9c-0.7,12.8,5.7,27.5,14.2,37.3H1638.9z"/>
		<path class="st1" d="M683.2,200.3c-7.6-14.3-15.2-28.8-22.9-43c-7.7-14.2-18.1-28.9-33.2-35.9c-5.2-2.4-10.4-4-15.9-3.6
			c-1-0.5-2.1-0.9-3.2-1.4c-2.6-1.1-5.8-1.3-9-1c-10.5-5.4-23.3-4.1-32.4,4.6c-9.1,8.7-16.1,20.4-19.1,32.6c-1,4.1-1.6,8.4-1.9,12.7
			c-10.7,7.4-20,17.7-22.9,30.7c-0.8,3.7-1.2,7.3-1.1,10.8c-1.5,3.3-2.3,7-2.1,11c0.8,20.4,14.2,34.3,31.8,42.7
			c0.6,0.3,4.7,2.8,6.7,3.7c0.1,0.1,0.1,0.2,0.2,0.4c0,0,0,0,0,0c0,1.1,0,2.2-0.1,3.3c-0.7,7.3,2.8,14.4,8.2,19.6
			c5.2,8.9,11.9,17.1,19.5,24c10.8,9.6,28.3,11.4,38.9,0c5.4-5.8,9.5-12.3,12.2-19.3c3.1-2.2,5.8-4.9,7.5-8.3
			c0.8-1.6,1.7-3.3,2.5-4.9c8.4-5.3,16.4-11,24.2-17.2c8.5-6.7,16.5-13.9,19.7-24.7C694.5,223.7,689.3,211.8,683.2,200.3z"/>
		<g>
			<path class="st1" d="M1241,310c-1-1.9-1.6-2.6-1.8-2.7c0.6,0.9,1.1,1.7,1.7,2.6C1241,309.9,1241,310,1241,310z"/>
			<path class="st1" d="M1237,285.5c0.5-0.8,0.8-1.4,1.1-1.8C1237.8,284.2,1237.4,284.8,1237,285.5
				C1237,285.5,1237,285.5,1237,285.5z"/>
			<path class="st1" d="M1269.3,212.7c-5.1-16.1-9.5-32.8-15.7-48.6c-4.7-11.9-10.9-22.3-21.9-29.4c-0.1-0.1-0.3-0.2-0.4-0.2
				c-8.4-10.7-23.8-15.3-36.1-7.7c-19.6,12.2-40.1,23.6-58.8,37.1c-15.5,11.2-29.6,25.7-36.3,43.3c-2.7,4.5-4.8,9.3-5.8,14.8
				c-1.6,8.9-1.8,18.3,1.5,26.9c2,5.2,4.8,10.3,8.3,14.8c0.7,2.9,1.9,5.8,3.5,8.5c2.4,4.1,5.5,7.7,9.1,10.7
				c-0.2,3.9,0.2,7.8,1.4,11.5c2.2,7.3,7.2,13.8,13.5,18.3c3.4,5.3,8.4,9.4,14.2,11.6c0.2,1.1,0.5,2.2,0.8,3.3
				c3.5,13,11.2,23.6,22.4,31c21.5,14.2,47.6,9.2,69.4-1.3c12.8-6.2,17.4-25.4,10.1-37.2c-1.3-2.9-3.1-5.6-5.5-8
				c-0.7-0.7-1.3-1.3-1.9-2c0.1,0.3,0.3,0.5,0.4,0.8c-0.2-0.3-0.4-0.6-0.5-0.9c-0.2-0.2-0.4-0.4-0.5-0.6c-0.9-1-1.4-2.1-1.1-2
				c-0.5-0.7-0.9-1.4-1.3-2.2c-0.1-0.2-0.3-0.5-0.4-0.8c0-0.1,0-0.1,0-0.2c-0.7-2.3-1.3-4.5-1.9-6.8c0-0.4-0.1-0.8-0.1-1.1
				c-0.1-1.9,0-3.8,0.1-5.7c0.2-0.8,0.4-1.6,0.6-2.4c0.2-0.9,0.5-1.7,0.8-2.6c-0.1,0.2-0.3,0.5-0.4,0.7c0.2-0.3,0.3-0.5,0.5-0.8
				c0.1-0.3,0.2-0.6,0.3-0.9c0.7-1.8,2-3.3,0.7-0.9c1.7-3.1,3.3-6.2,5.3-9.2c2.7-4,5.6-7.9,8.4-11.8c6.9-9.7,12.5-19.6,16.4-30.9
				c0.3-1,0.6-1.9,0.8-2.9C1270.7,223.8,1271.1,218.2,1269.3,212.7z"/>
		</g>
		<g>
			<g>
				<path class="st1" d="M979.9,421.3C980.6,419.7,981.7,416.3,979.9,421.3L979.9,421.3z"/>
				<g>
					<path class="st1" d="M973,566.1c0,2.6,0.1,3.5,0.2,3.5C973,568.5,973,567.3,973,566.1C973,566.2,973,566.2,973,566.1z"/>
					<path class="st1" d="M1118.8,444.3c-0.9-7.6-2.4-13.8-8.1-19.4c-4.8-4.8-12.6-8.4-19.4-8.1c-2.6,0.1-5.2,0.5-7.8,1.2
						c-1.2-2.9-2.5-5.7-4.2-8.5c-7.4-12.4-25.1-18-37.6-9.9c-0.2,0.1-0.4,0.3-0.6,0.4c-0.1-0.5-0.2-1-0.3-1.6
						c1.5-6.1,2.4-12.4,2.9-18.8c0.4-5.1,0.4-10.2,0.6-15.4c0.1-2.4,0.1-4.9,0.3-7.3c0.1-1.3,0.2-2.7,0.3-4c0-0.1,0-0.2,0-0.3
						c0.1-0.4,0.1-0.9,0.2-1.1c0.2-1.2,0.5-2.4,0.8-3.6c0.2-0.8,1.1-3.2,1.5-4.4c0.4-0.8,0.9-1.6,1.3-2.4c0.6-1.1,1.3-2.3,2-3.4
						c0.1-0.1,0.3-0.3,0.5-0.5c0.8-0.9,1.6-1.8,2.5-2.7c0.5-0.5,1-1,1.5-1.5c-0.1,0,0.8-1,1.8-1.7c0.2-0.1,0.3-0.2,0.5-0.3
						c0.3-0.3,0.7-0.6,1-1c-0.3,0.3-0.6,0.6-0.9,0.9c0.8-0.5,1.6-1.1,2.5-1.6c2.1-1.2,9.6-4.5,1.3-1.1c6.9-2.8,12.5-5.9,16.4-12.6
						c3.4-5.9,4.9-14.6,2.8-21.2c-2.2-6.7-6.3-13.1-12.6-16.4c-6.1-3.2-14.5-5.5-21.2-2.8c-12.6,5.2-24.1,11.7-33.5,21.9
						c-9.3,10.2-16.4,22.1-20.2,35.4c-3.5,12.1-3.6,25-3.9,37.4c-0.1,2.7-0.2,5.4-0.3,8.1c-0.1,0.8-0.1,1.7-0.2,2.5
						c-0.5,2.2-1.1,4.3-1.6,6.4c-0.6,1.1-1.2,2.1-1.8,3.1c-4.3,6.7-4.7,15.4-2.1,22.9c-0.7,2-1.4,4-2.2,5.9
						c-0.4,1.1-0.9,2.2-1.3,3.3c0.1-0.4,0.3-0.8,0.4-1.1c0,0.1-0.1,0.1-0.1,0.2c-4.3,9.3-9.4,18.2-15.1,26.7
						c-7.4,10.9-13.3,22.2-14,35.7c-0.3,6,0.6,11.7,2.6,17.1c-2.6,7.3-2.4,15.4,2.2,22.2c2.6,3.8,5.1,7.8,7.2,11.8
						c1.2,2.3,2.4,4.6,3.4,6.9c0.2,0.6,0.5,1.2,0.6,1.5c1.6,4.3,3,8.8,4.2,13.2c0.6,2.2,1.1,4.5,1.5,6.8c0.2,0.9,0.3,1.8,0.5,2.8
						c0-0.2,0-0.4,0-0.6c0,0.2,0,0.4,0,0.6c0,0.2,0.1,0.4,0.1,0.6c0.2,1.2,0.1,2.8,0,2.8c0.2,3.4,0.7,6.8,0.6,10.2
						c0,2.4-0.1,4.7-0.2,7.1c-0.1,1-0.2,2-0.2,3c-0.9,4.4-1.6,8.9-2.8,13.3c-0.6,2.3-1.4,4.5-2.2,6.8c-0.3,0.7-0.5,1.4-0.8,2.1
						c0,0.1-0.1,0.2-0.1,0.3c-3.2,6.9-4.9,13.6-2.8,21.2c0.5,1.9,1.3,3.8,2.4,5.7c-4.4,7.5-6.2,16.3-3.2,25.1
						c3.8,11.2,12.2,19.6,23.7,22.8c14.5,4,30.2-3.2,42.9-9.6c17.1-8.5,32.7-21.4,44.9-36c29.2-34.8,43-77.1,46.5-122.1
						C1123.6,494.5,1121.9,469.3,1118.8,444.3z"/>
				</g>
			</g>
			<g>
				<path class="st1" d="M1191.9,503.1c-0.2,0-0.4,0-0.6,0.1c0,0,0.1,0,0.1,0c0.1,0,0.3,0,0.4-0.1
					C1191.8,503.1,1191.9,503.1,1191.9,503.1C1191.9,503.1,1191.9,503.1,1191.9,503.1C1191.9,503.1,1191.9,503.1,1191.9,503.1
					C1192,503.1,1192,503.1,1191.9,503.1C1192,503.1,1192,503.1,1191.9,503.1C1192,503.1,1192,503.1,1191.9,503.1
					C1192,503,1192,503,1191.9,503.1C1191.9,503.1,1191.9,503.1,1191.9,503.1z"/>
				<path class="st1" d="M1191.5,503.5C1191.5,503.5,1191.6,503.5,1191.5,503.5C1191.6,503.4,1191.6,503.4,1191.5,503.5
					C1191.6,503.4,1191.6,503.4,1191.5,503.5C1191.6,503.4,1191.5,503.5,1191.5,503.5z"/>
				<path class="st1" d="M1191.1,503.4c-0.1,0.1-0.1,0.1-0.2,0.2c0.1,0,0.3,0,0.4,0c0,0,0.1-0.1,0.1-0.1
					C1191.3,503.4,1191.2,503.4,1191.1,503.4z"/>
				<path class="st1" d="M1191.4,503.4c0.1,0,0.1,0,0.2,0c0.1-0.1,0.2-0.2,0.3-0.3c0,0-0.1,0-0.1,0c-0.1,0-0.2,0.1-0.3,0.1
					C1191.4,503.3,1191.4,503.4,1191.4,503.4z"/>
				<path class="st1" d="M1255.3,479.4c-5.1-9-11.6-17-19.3-23.8c-0.4-1.3-0.9-2.5-1.6-3.7c-8.2-15.3-20.2-28.1-34.5-37.8
					c-1.6-6.9-5.8-13-12.5-16.9c-2.5-1.5-5.1-3-7.5-4.6c-1-0.7-1.9-1.3-2.9-2c-0.4-0.3-1.5-1.1-2.2-1.6c-0.3-0.2-0.6-0.4-0.6-0.5
					c-0.9-0.7-1.8-1.5-2.7-2.3c-2-1.7-4-3.5-5.9-5.3c-8.5-7.8-16.5-16.2-24.7-24.4c-17.3-17.5-34.6-35-51.8-52.5
					c-10.1-10.3-28.9-10.9-38.9,0c-0.6,0.7-1.3,1.4-1.8,2.2c-12.4-7-30.3-2.8-37.2,10.1c-7,13.2-3.4,29.8,9.9,37.6
					c0.7,0.4,1.3,0.8,2,1.2c-2.8,1.5-5.4,3.4-7.9,5.6c-10.8,9.6-10.5,29.3,0,38.9c7.2,6.6,16.2,9,24.7,7.2c0.1,0.1,0.3,0.2,0.4,0.2
					c6.4,3.6,12.7,7.2,19.1,10.7c5.2,2.9,10.4,5.8,15.5,8.8c2.3,1.3,4.6,2.7,6.8,4.1c0.9,0.6,1.8,1.1,2.7,1.7
					c0.5,0.4,3.3,2.5,3.6,2.7c0.8,0.7,1.7,1.5,2.5,2.2c0.9,0.9,1.8,1.8,2.7,2.8c0.2,0.2,0.8,0.9,1.3,1.5c0.1,0.1,0.1,0.2,0.1,0.2
					c0.7,1.1,1.4,2.2,2,3.4c1.4,2.7,2.6,5.4,3.8,8.2c4.3,9.9,11,19.1,19.8,25.2c-7.3,9.1-14.7,18.3-22,27.4
					c-14.8,18.4-29.9,36.6-42.6,56.4c-7.8,12.1-2.9,30.9,9.9,37.6c13.6,7.2,29.3,3.1,37.6-9.9c2.8-4.4,5.8-8.8,8.8-13.1
					c1.4-2,2.9-4,4.4-6c0.7-1,1.4-1.9,2.2-2.9c6.9-8,13.2-16.7,19.9-24.9c5.7-7,11.3-14.1,17-21.1c0,0,0.1,0,0.1,0
					c1.1-0.4,2.2-0.8,3.3-1.2c2.5-0.8,5-1.5,7.4-2.2c6.6-1.9,12.6-4.7,18-8.8c2.3-1.8,4.5-3.7,6.7-5.7c0.1-0.1,0.4-0.4,0.7-0.7
					c0.1-0.1,0.2-0.1,0.3-0.1c0.2,0,0.4,0.1,0.5,0.1c4.1,1,7.9,2.6,11.8,4.1c10.7,4.1,20.8,5.9,32.2,3.9c1.6-0.3,3-0.8,4.4-1.5
					c2.6-0.3,5.1-1.2,7.3-2.6C1257.4,501.3,1261,489.4,1255.3,479.4z M1124.8,436.8c0,0,0.1,0.1,0.1,0.1c0.2,0.2,1.1,1.5,1.7,2.1
					c0,0.1,0.1,0.1,0.1,0.2C1124.9,438.4,1124.2,436.6,1124.8,436.8z M1192.1,503C1192.1,503,1192.1,503,1192.1,503
					C1192,503.1,1192,503.1,1192.1,503C1192,503.1,1192,503.1,1192.1,503C1192,503.1,1192,503.1,1192.1,503
					c-0.1,0.1-0.1,0.1-0.1,0.1c-0.1,0.1-0.3,0.2-0.4,0.3c0,0,0,0,0,0c0,0,0,0-0.1,0c0,0,0,0-0.1,0.1c0,0,0,0,0-0.1
					c-0.1,0-0.2,0-0.3,0.1c-0.8,0.8-0.7,0.4-0.4,0c-0.2,0-0.5,0-0.7-0.1c0.1,0,0.2,0,0.4,0c0.1,0,0.1,0,0.2-0.1c0.1,0,0.2,0,0.3,0
					c0.1-0.1,0.1-0.1,0.2-0.1c-0.1,0-0.2,0-0.3,0c0.5-0.1,0.8-0.2,0.9-0.2c0.5-0.4,0.9-0.8,1.1-0.8
					C1192.7,502.5,1192.4,502.8,1192.1,503z"/>
			</g>
		</g>
		<path class="st1" d="M1267.6,506.2c0.7-5-0.9-10.1-4.7-14.2c-10.5-11.1-17.5-19.9-25.7-32.3c-4.9-7.4-15.3-11.3-23.3-6.1
			c-7.4,4.8-11.3,15.3-6.1,23.3c1.4,2.1,2.8,4.2,4.3,6.2c-5.6,5.3-8.5,14.6-3.6,21.3c5.9,8.1,11.8,16.2,17.7,24.2
			c0.2,0.3,0.5,0.7,0.8,1c0.2,0.7,0.5,1.3,0.8,2c-0.1,3.2,0.7,6.4,2.2,9.1c0.8,1.3,1.8,2.6,3,3.7c0.1,2.8,0,5.6-0.1,8.4
			c-0.1,3.2-0.4,6.4-0.7,9.5c0,0.4-0.4,3-0.4,3.5c-0.1,0.7-0.5,3.3-0.5,3.4c-1.7,10.1-3.9,20.1-6.4,30c-5.3,10.1-11.1,20-17.4,29.5
			c-2.3,3.4-4.6,6.7-7,10c-0.4,0.3-0.8,0.7-1.2,1c-7.2,1.9-13.7,6.3-17.1,12.8c-7.6,1.9-15.1,4.2-22.5,7.1
			c-3.4,0.4-6.8,0.8-10.1,1.4c-12.1,2.2-21.9,7.9-30.2,15.6c-21.2,11.6-41.6,28.3-52.2,50.3c-12,24.9-14.1,57.2,2.2,80.9
			c10.8,15.7,26.5,27.1,46,28.1c17.8,0.8,33.6-8,46.9-18.8c19.8-16.1,34.6-39.3,46.1-61.8c6.2-12.2,11.7-24.8,17.1-37.4
			c6.7-15.7,14.1-31.4,17.1-48.4c0.8-4.2,1-8.3,0.4-12.2c1.4-1.7,2.5-3.8,3.1-6.1c1.6-6.1,3.3-12.4,5.1-18.7c1.5-2.6,3-5.2,4.4-7.8
			c2.3-4.2,2.7-9.4,1.4-13.9c5.9-23.3,10.6-47.1,9.6-70.3c0.2-0.6,0.4-1.3,0.5-1.9C1269.2,527.7,1269.4,517.1,1267.6,506.2z"/>
		<g>
			<path class="st1" d="M1013.5,1051.6c-13.9-3.2-27.6,3.5-32.9,16.6c-0.1,0.1-0.2,0.2-0.3,0.3c-0.1,0.1-0.3,0.2-0.4,0.3
				c-1.6,1-3.3,2-4.9,2.9c-8,4.6-16,9.1-24,13.7c-8,4.6-16,9.1-24,13.7c-0.3,0.2-0.6,0.3-0.9,0.5c-5.6-3-12.2-4.2-18.4-2.9
				c-7.6-11.5-24.9-15.9-36.7-8.3c-7,4.5-11.5,11.3-12.9,18.7c-2.4-1.6-5-2.8-7.8-3.4c-6.1-1.4-11.9-0.9-17,1.1
				c-0.1-0.2-0.3-0.4-0.4-0.6c-2-2.7-4.1-5.4-6.1-8.2c-0.8-3.2-1.9-6.4-3.7-9.6c-3.6-6.3-8.4-10.9-14-14.5c0-15.8-3.2-31.1-9.8-46.3
				c-8.2-18.8-22.4-34.4-39.4-45.7c-12-8-31-2.7-37.6,9.9c-7.3,13.8-2.9,29.1,9.9,37.6c0.4,0.3,0.9,0.6,1.3,0.9
				c1.1,1,2.3,1.9,3.4,2.9c2.3,2.2,4.4,4.5,6.5,6.9c0.1,0.2,0.3,0.4,0.5,0.7c0.8,1.2,1.6,2.4,2.4,3.7c1.6,2.6,3,5.3,4.3,8
				c0.1,0.4,0.3,0.7,0.4,1.1c0.6,1.8,1.2,3.7,1.7,5.5c0.9,3.3,1.3,6.6,2.1,9.9c-0.2-1-0.4-1.8-0.6-2.5c0.2,0.8,0.3,1.7,0.3,2.4
				c0.1,1.4,0.1,2.9,0.1,4.3c0,1.9-0.1,3.9-0.2,5.8c0,0.2,0,0.5,0,0.7c-1.1,7.2-0.9,13.9,2.9,20.4c0.7,1.3,1.6,2.5,2.6,3.7
				c2.6,5.1,6.8,9.4,12.3,12.4c1,1.4,2,2.7,3,4.1c0.2,1.6,0.5,3.1,0.8,4.7c1.4,6.3,3.8,12.9,7.2,18.8c-0.1,9.6,4.1,19.2,13.3,23.6
				c19.9,9.5,40.4,16.1,61.8,20.1c1.6,0.9,3.2,1.8,4.8,2.8c3.5,2,7.6,3.3,11.8,3.6c1.8,2,3.8,3.6,6.1,4.6
				c10.7,4.6,20.8,7.5,32.6,7.4c8.3,0,16.8-1.3,24.9-3.2c13.6-3.1,27.1-9.1,38.7-16.8c25.1-16.8,44-41.1,52.8-70.1
				c1.8-6,1.1-12.5-1.4-18.2c1.7-3.1,3.2-6.4,4.3-10C1036.8,1071.6,1027.8,1054.8,1013.5,1051.6z"/>
			<path class="st1" d="M754,1064.4C753.6,1062.5,753.2,1061,754,1064.4L754,1064.4z"/>
		</g>
		<g>
			<path class="st1" d="M1061.1,1055.4c-0.3,1-0.4,1.1,0.4-1.3c-0.1,0.2-0.2,0.4-0.2,0.6C1061.2,1054.9,1061.1,1055.1,1061.1,1055.4
				z"/>
			<path class="st1" d="M1145.5,886.2l-0.4-1.2c-0.9-3.6-2.5-6.7-4.9-9.4c-1.9-3-4.5-5.4-7.7-7.1c-3.2-2-6.6-3.1-10.2-3.3
				c-3.7-0.8-7.3-0.7-11,0.5c-0.7,0.3-1.4,0.6-2.1,0.9c-0.8-0.3-1.6-0.6-2.4-0.7c-7-1.6-14.9-1.3-21.2,2.8c-4.7,3-7.8,6.7-10.2,11.2
				c-0.4,0.7-0.8,1.3-1.2,2c0.3-0.9-2.3,4.7-3.1,6.2c-1.3,2.4-2.8,4.7-4.4,6.9c-0.1,0.1-0.3,0.3-0.4,0.5c-2.8,1.2-5.4,2.8-7.8,5
				c-7.4,3.5-14.3,8-20.7,13.5c-2.2,1.1-4.4,2.3-6.6,3.4c-12.2,6.1-24.3,12.2-36.5,18.3c-0.7,0.3-1.3,0.7-1.9,1.1
				c-1.9,0.3-3.9,0.6-5.8,1c-9.4,1.8-18.8,5.4-27.4,10.1c-5.9,1.7-11.3,5.4-15,10.3c-3.1,1.1-6.2,2.2-9.3,3.5
				c-4.1,1.7-8.2,3.6-12.3,5.4c-0.1,0-0.2,0.1-0.4,0.1c-1.9,0.7-3.8,1.4-5.8,1.9c-0.5,0.1-1.9,0.4-3,0.6c-0.6,0-1.2,0.1-1.5,0.1
				c-0.9,0-2,0.1-3.1,0.2c-0.9-0.2-1.9-0.3-2.8-0.5c-3.3-0.7-6.6-1.7-9.8-2.8c-0.4-0.2-1.7-0.7-2.7-1c-1.1-0.5-2.3-1.1-2.8-1.3
				c-6.9-3.3-13.5-7.1-20.2-10.9c-13.4-7.6-27.2-14.7-41.3-20.9c-18.1-7.9-36.6-14.8-55.6-20.3c-3.7-1.1-7.6-1.2-11.4-0.6
				c-16-9.4-32.8-17.5-50.4-24.3c-3.8-1.5-8.8-1.3-13.4-0.2c-9.6-0.1-19,4.2-23.8,13.3c-3.9,7.4-4.5,16.6-1.6,24.4
				c-2.4,7.1-2,15.1,2.3,22.2c7.2,11.9,15.4,23.5,23.6,34.9c-0.1,0.8-0.1,1.7,0,2.5c0.3,6.8,2.5,15.1,8.1,19.4
				c12,9.3,22.7,20,32.1,31.9c4,5.2,13.2,8.1,19.4,8.1c6.7,0,14.8-3,19.4-8.1c1-1.1,1.9-2.2,2.7-3.3c0,0,0,0,0,0
				c6.3,9.4,10.8,19.5,15.6,29.6c2.6,5.5,5.6,11.1,9.1,16.2c-0.3,0.8-0.5,1.5-0.7,2.3c-1.8,7.7-0.3,14,2.8,21.2
				c4.7,10.9,18.4,18,30,17.9c10-0.1,18.4-3.8,25.2-10.1c0.3,0,0.6,0.1,0.9,0.1c12,0.9,24.2-0.9,36.1-2.4
				c13.7-1.7,27.4-3.5,40.3-8.5c15.7-6.1,30.3-14.7,42.8-25.7c-0.8,2-1.6,4-2.2,6.1c-4.4,13.7,5.2,30.6,19.2,33.8
				c15.1,3.4,29.1-4.5,33.8-19.2c0-0.1,0.1-0.3,0.1-0.4c0.1-0.1,0.1-0.2,0.2-0.4c0.2-0.4,0.4-0.7,0.6-1.1c1.2-0.7,3.4-3.5,4.2-4.3
				c1.7-1.4,3.4-2.6,5.1-4c8.7-7.3,13.4-17.6,16.9-28.1c0.1-0.2,0.1-0.4,0.2-0.6c0.3-1,0.6-1.9,0.9-2.9c-0.3,0.9-0.5,1.6-0.7,2.2
				c0.3-0.8,0.7-1.8,0.9-2.4c0.8-1.8,1.7-3.5,2.6-5.2c1.8-3.5,3.8-6.9,5.9-10.2c4-6.5,8.5-12.8,13-19c18.4-25.2,38.5-49.9,46.8-80.4
				c5.5-4.6,9.2-11.2,9.6-18.4c0.2-0.6,0.4-1.2,0.6-1.8c1.2-1.4,2.4-2.9,3.3-4.5c0.3-0.7,0.6-1.3,0.9-2c1.9-3.6,3.1-7.4,3.1-12.1
				C1148.2,894.2,1147.2,890,1145.5,886.2z"/>
		</g>
		<path class="st1" d="M530.1,1417.1c4.6-0.2,9.5-2.4,12.8-5.9c13.4,3.4,27,6.1,40.7,8.4h609.1c2.5-3.8,3.2-8.7,2.5-14
			c-1.8-13-3.7-26.1-5.5-39.1c-1.8-12.4-2.7-25.3-5.5-37.6c-2-8.9-6.5-16.6-12.6-23.1c-2.6-6.2-5.9-12.2-10-17.9
			c-12.3-16.8-28.4-29.6-45.6-41.1c-8.8-5.8-17.7-11.5-27.4-15.7c-11.2-4.8-22.6-7.3-34.8-8.2c-12.4-1-24.9-0.3-37.3,0
			c-13.2,0.3-26.4,0.6-39.7,0.9c-3.4,0.1-6.7,1.2-9.5,3.1c0,0,0,0,0,0c-10.7,3.3-21.5,6.1-32.5,8.4c-11.7,2.4-19.7,3.5-30.5,4.5
			c-22,2-44.1,1.8-66.1-0.7c-4.9-0.6-7.1-0.9-13.1-1.9c-5.7-1-11.3-2-16.9-3.2c-11.2-2.3-22.4-4.8-33.7-6.9
			c-21.3-4-43.1-7.1-64.8-4.9c-20.9,2.1-40.3,8-57.5,19.3c-2.5,0.9-5,2.2-7.2,3.7c-26.3,2.4-49.8,17.3-69.2,34.8
			c-21.1,19-41.4,42.3-52.9,68.4c-7.2,16.3-11.6,33.7-9.8,51.7C513.9,1408.9,520.3,1417.5,530.1,1417.1z"/>
		<path class="st1" d="M811,645c-1-2.8-2.2-5.4-3.7-7.7c0.6-5.6,0.2-11.1-1-16.4c-1.9-33.9-4.7-67.9-11-101.2
			c-3.5-18.6-9.2-36.6-17.4-53.7c-7.7-16.1-19.2-29.9-27.1-45.9c-1.7-3.5-4.4-6.3-7.6-8.5c-2.1-4.2-4.7-8.2-7.9-11.9
			c-13.6-15.7-35-18.1-54-12.4c-1.9,0.6-3.9,1.2-5.8,1.7c-10.1,1-20,3.8-29.2,8.1c-2.4,0.6-4.8,1.1-7.3,1.6
			c-15,3.1-30.2,5.5-45.3,7.9c-0.7,0.1-1.5,0.3-2.2,0.6c-7.2-1.3-15,0.8-21,5.1c-11,4.2-22.1,8.5-32.2,14.5
			c-11.7,6.9-21.2,15.9-29.1,26.9c-11,15.4-16.2,33.8-19.4,52.3c-2.7,3.3-4.3,7.5-3.9,12.1c1.7,23.3,1.9,46.6,0.8,70
			c-0.5,10.7,9.8,21,20.5,20.5c11.6-0.5,19.9-9,20.5-20.5c1-20.7,0.9-41.5-0.3-62.2c0.6-1.8,1.1-3.8,1.3-5.9
			c-0.2,1.4-0.5,3.4-0.1,0.8c0.2-1.3,0.4-2.6,0.6-3.9c0.4-2.3,0.8-4.6,1.3-6.9c0.9-4.3,1.9-8.7,3.2-12.9c0.7-2.2,1.4-4.5,2.2-6.6
			c0.1-0.1,0.2-0.7,0.4-1.3c0-0.1,0.1-0.1,0.1-0.2c0.2-0.5,0.4-0.9,0.6-1.4c1.9-4.2,4.1-8.2,6.7-11.9c0.1-0.1,0.3-0.4,0.5-0.8
			c0.3-0.4,0.8-1,0.9-1.1c0.7-0.9,1.5-1.7,2.3-2.5c3.8,1.1,8,2.2,11.4,4.1c-4.5-2.4,1.8,0.8,2.7,1.3c2,0.9,4,1.9,5.9,3
			c3.4,1.8,6.7,3.8,10,5.9c1.9,1.2,3.7,2.4,5.5,3.7c0.8,0.6,1.6,1.2,2.5,1.8c6.5,5.4,12.5,11,18,17.3c5.7,6.4,11.1,13.1,17.4,18.9
			c3.1,7.2,7.3,13.9,12.9,20c5,5.4,11,9.9,17.3,14c-1.9,6.8-1.3,14.1,2.8,20.6c10.3,16.2,20.6,32.3,30.9,48.5
			c10.5,16.5,20.4,33.7,32.7,49c14.4,17.9,38,28.8,61,23C801.8,696.1,819.7,668.8,811,645z"/>
		<path class="st1" d="M708.4,798.1l-0.1-2.1c0-0.1,0-0.3,0-0.4c0-1.2-0.1-2.3-0.2-3.5c-0.4-5.8-0.7-11.7-1.1-17.5
			c-0.5-8.7-0.7-17.9-3.1-26.3c-2.9-10-8.6-18.2-15.6-25.8c-1.5-1.6-3-3.2-4.5-4.7c-5.5-11.5-12-22.4-19.7-32.2
			c-1.8-3.3-3.7-6.5-5.8-9.6c-9-13.5-20.5-26.7-35.7-33.2c-7-3.1-13.5-4.9-21.2-2.8c-2.8,0.8-5.6,2.1-8.2,3.9
			c-6.3-0.5-12.6-0.2-18.8,1.2c-12,2.8-21.5,10.4-26.8,20.3c-1.3-2.5-2.6-5.1-3.8-7.7c-0.5-1.3-1-2.5-1.4-3.7
			c-0.8-2.3-1.6-4.7-2.3-7.1c-1.4-4.9-2.5-9.9-3.4-14.9c-0.5-2.8-0.9-5.5-1.3-8.3c-0.2-1.2-0.4-2.5-0.5-3.7
			c-0.1-0.8-0.2-1.6-0.3-2.1c-1.6-11.9-3.1-23.9-6.3-35.5c-2.9-10.3-14.7-17.7-25.2-14.3c-10.6,3.4-17.4,14.1-14.3,25.2
			c1.6,5.7,2.8,11.5,3.7,17.3c0.5,2.8,0.8,5.5,1.2,8.3c0.1,0.4,0.1,0.6,0.1,0.8c0,0.1,0,0.1,0,0.2c0.3,2.4,0.7,4.9,1,7.3
			c1.5,11.4,3.3,22.8,6.8,33.8c5.8,17.9,14.9,34.6,26.8,49c0.3,0.7,0.7,1.4,1,2c9.7,16.8,18.8,33.9,27.2,51.3
			c4.1,8.4,8,16.9,11.8,25.5c0.8,1.7,1.5,3.5,2.3,5.2c0.3,1.1,0.7,2.3,1,3.4c1,3.6,2,7.2,2.8,10.9c0.4,1.8,0.7,3.5,1.1,5.3
			c0,0.1,0,0.2,0,0.3c0.2,8.8-0.4,17.9,2.6,26.3c3.8,10.8,12.8,20.6,23.9,24.1c5.7,2.9,12.2,3.8,18.6,1.4
			c22.1-8.2,43.8-18.1,63.8-30.5c10.6-6.6,19.1-15.7,22.4-27.2C708,805.1,708.6,801.7,708.4,798.1z"/>
		<g>
			<path class="st2" d="M775.4,651.7c-5.9-14.2-12.9-28-19.4-41.9c-0.9-1.9-1.7-3.9-2.7-5.9c-0.4-1.2-0.9-2.4-1.3-3.6
				c-0.5-1.4-1.3-2.7-2.2-3.9c-3.8-7.2-8.8-13.4-17.2-14.4c-1.6-1.4-3.8-2.3-6.6-2.3c-2.3,0-4.2,0.6-5.7,1.6
				c-4.5-1.3-9.3-1.9-14.2-1.5c-7.9-2-16-2.9-24.2-2.8c-12,0.2-13.3,16.7-4.1,20.3c1.6,1.2,3.5,1.9,6,2c-1,0,1.4,0.8,0.1-0.2
				c1.2,0.9,1.7,1.6,2.4,2.6c1.8,2.5,3.1,5.4,4.5,8.1c0.5,1,1,2,1.5,2.9c-1.6,10.1,4.6,21.1,15.3,23.2c0.1,0,0.2,0,0.3,0
				c11.7,14.4,26.6,26.2,43.5,33.9c1.9,6,3.8,12,5.7,17.9c2.7,8.2,14.7,10.8,19.2,2.5C783.2,677.9,780.7,664.3,775.4,651.7z"/>
			<path class="st2" d="M1086.3,569.5c-3.3-3-8-3.5-12.3-1.4c-0.5,0.2-0.7,0.4-0.8,0.4c-0.1,0-0.3,0.1-0.7,0.1
				c-0.7,0.2-1.4,0.4-2.1,0.6c-0.3,0.1-0.6,0.1-0.8,0.1c-0.3,0-0.5,0-0.8,0c-0.6,0-1.2,0.1-1.7,0.1c-1.1-0.4-2.3-0.6-3.7-0.6
				c-22.1,0.1-35,17-48.3,31.9c-2.3,1.1-4.5,2.6-6.4,4.6c-1.9,1.9-3.3,3.9-4.4,6.1c-0.5,0.3-0.9,0.7-1.4,1
				c-4.4,2.9-9.3,4.9-13.6,8.1c-8.1,6.1-13.4,17.2-9.2,26.9c-1,1.5-1.6,3.5-1.5,5.9c0.1,5.1,0.2,10.2,0.3,15.2
				c0.1,2.9,1.1,5.2,2.7,6.9c1.2,2.5,3.3,4.5,6.4,5.4c2.9,0.8,6.5,0.1,9.2-1.8c4.1-1.4,7.5-3.6,10.5-6.5c0.5-0.1,1-0.1,1.5-0.2
				c12-2.9,20.9-14.2,20.9-26.5c7.5-5.2,15.8-9.5,22.2-16.3c1.6-1.7,3.1-3.6,4.4-5.4h1.8c5.5,0,10.8-4.8,10.5-10.5
				c-0.1-1.5-0.4-2.9-1-4.2c2.6-3.6,4.8-7.5,6.7-11.6c0.3-0.8,0.6-1.6,0.8-2.4c0.4,0,0.8,0.1,1.2,0.1c4.4,0,7.4-2.2,8.9-5.2
				C1097.4,589.2,1097.6,571.2,1086.3,569.5z"/>
			<path class="st2" d="M824.7,742.1c-2.6-0.7-5-0.4-7,0.6c-0.6-0.1-1.2-0.2-1.8-0.2c-6.1,0-9.8,4.7-10.5,10.3
				c-1.3,0.8-2.3,1.9-3,3.4c-3.7,8.2-7.1,16.4-10,24.9c-5,2-8.3,7.2-6.8,12.7c0.3,1.2,1,2.4,1.8,3.5c0,0.2-0.1,0.3-0.1,0.5
				c-3-0.7-6.3,0-9.2,2.9c-15.7,16.2-22.1,37.9-19.1,60.1c0.7,5.3,8.1,9.2,12.9,7.3c20.1-7.7,26.4-28.4,33.7-46.7
				c8.8-22.1,17.7-44.2,26.5-66.3C834.2,749.8,829.8,743.5,824.7,742.1z"/>
			<path class="st2" d="M973.7,836.6c-3.5-11.4-9.7-22.6-15.2-33.2c-6.7-12.7-13.9-25.2-21.1-37.7c-3-8.4-6.1-16.7-9.1-25.1
				c-1.9-5.3-7.1-8.9-12.9-7.3c-1,0.3-1.9,0.7-2.8,1.3c-5.8,0.6-11.3,6-9.9,12.4c-0.9,2-1.1,4.4-0.2,7.1c11.7,35,27.8,68.4,48,99.2
				c0.3,0.5,0.5,1,0.8,1.5c0.4,0.8,1,1.5,1.6,2.1c0.5,0.7,0.9,1.4,1.4,2.1c3.2,4.7,9.2,6.8,14.4,3.8c3.9-2.3,6.2-7.6,4.8-12.1
				C975.1,846.5,975.2,841.4,973.7,836.6z"/>
			<path class="st2" d="M924.4,225.2c-2.4-2.4-5.3-3.2-8.2-2.9c-1.9-2.7-5-4.6-8.4-4.3c-23.4,1.7-46.8,2.5-70.2,2.6
				c-3.3-0.4-6.7-0.7-10-1.1c-5.6-0.6-10.5,5.3-10.5,10.5c0,6.2,4.8,9.9,10.5,10.5c1.2,0.1,2.5,0.3,3.7,0.4c1.1,0.4,2.4,0.7,3.9,0.7
				c0.8,0,1.6,0,2.4,0c14.1,1.5,28.3,3,42.4,4.5c15.7,1.7,31,4.4,44.4-6C928.8,236.6,928,228.8,924.4,225.2z"/>
			<path class="st2" d="M877.7,345.9c0.2-13.5-20.8-13.5-21,0c0,1.8,0,3.6,0.1,5.5c-2.8,0.3-5.5,1.8-7.4,5
				c-5.7,9.6-9.8,20.1-12.1,31c-1,5,1.4,12.1,7.3,12.9c12.6,1.7,23.5-4.4,29.3-15.7C880.2,372.3,877.5,359,877.7,345.9z"/>
			<path class="st2" d="M998.1,569.2c-4.7-24-25-41.2-39.7-59.4c-16.1-19.8-30.4-41.1-42.9-63.3c-1.7-3-4.2-4.6-6.9-5
				c-1.6-2.7-4.5-4.6-8.6-4.6c-9.4,0-12.2,10.1-8.6,16.3c0,0.8,0.1,1.6,0.2,2.4c3.5,17.5,13,32.6,26.4,44c0.5,1.1,1.1,2.1,1.9,3
				c21.4,25.8,37,56.6,53.9,85.4c6.1,10.4,21.2,3.1,19.5-6.9C997.4,578.6,999,573.9,998.1,569.2z"/>
			<path class="st2" d="M845.5,461.6c-2.9,0.6-5.7,1.4-8.4,2.4c-1.4-1.3-3.4-2.1-5.8-1.5c-19.4,4.3-37.8,14.2-49.7,30.5
				c-11.9,16.4-14.7,38.2-6.4,56.7c2.5,5.6,9.2,3.5,11.3-1c4.5,0.4,9-1.3,11.7-6c1.8-3.1,1.7-7.5,2.5-11c0.8-3.5,1.8-6.9,3.2-10.2
				c2.4-5.7,5.7-11.4,9.6-16.2c9.6-11.9,22.7-20.2,37.7-23.5C864.3,479,858.7,458.7,845.5,461.6z"/>
			<path class="st2" d="M804.1,445.7c-1.4-5.1-7.6-9.3-12.9-7.3c-4.4,1.6-8.8,3.2-13.2,4.8c-1.2-0.6-2.5-0.8-4.1-0.6
				c-17.4,2.8-32.5,13.4-41.9,27.9c-7.7,6.2-14,14.1-18.1,23.1c-9.3,20.5-7.8,44.9,4.4,63.9c2.9,4.6,7.7,5.6,11.8,4.4
				c0.3,0,0.6,0,0.9,0c2.4,1.9,5.4,2.8,8.9,1.8c4.9-1.4,9.5-7.7,7.3-12.9c-7.9-18.9-7.6-40.5,2.8-58.4c0.4-0.7,0.8-1.3,1.3-2
				c2-0.7,3.9-1.8,5.6-3.3c1.7-1.5,3.1-3.4,4.4-5.3c1.4-0.5,2.7-1.1,3.9-2.4c0.8-0.8,1.4-1.7,2-2.8c1.7-0.8,3.1-2,4.1-3.6
				c0.6-0.2,1.2-0.4,1.8-0.7c5.2-2.5,10.4-5.1,15.7-7.6c1.1-0.5,2.1-1.4,2.8-2.3c0.7-0.2,1.4-0.3,2.1-0.5c2.8-0.6,5-2.5,6.3-5
				C803.4,454.3,805.3,450.2,804.1,445.7z"/>
			<path class="st2" d="M945.2,912.3c-11.6-2.5-22.4,4.5-32.3,9.3c-11.3,5.6-22.6,12.1-34.6,16.2c-5.2,1.8-10.6,2.7-16,2.8
				c-0.2-0.3-0.4-0.6-0.6-0.9c-10.2-12.9-25.5-21.7-41.8-24c-1.5-0.2-3.1-0.2-4.5,0c-2.9-1.3-6.2-1.3-9.2,0.5
				c-3.9,2.3-6.3,7.7-4.8,12.2c-1.9,2.9-2.5,6.7-0.3,10.6c6.2,11.1,16.8,17.9,27.5,24.1c4.3,2.5,9.5,5.4,13,8.2
				c4.9,3.9,7.3,7.7,9.9,13.4c3.2,6.9,7.1,13.3,13.8,17.5c6.4,3.9,14,5.3,21.4,4.1c4.6-0.7,8.8-2.6,12.4-5.2c7.5-1.4,14-6.5,17.4-14
				c2.1-4.6,3.1-9.6,4.9-14.3c1.7-4.5,4.4-8.2,7.7-11.6c7.4-7.6,17.6-12.6,24.3-20.7C961.9,930.8,958.8,915.3,945.2,912.3z
				 M917.7,943.3c-0.1-0.1-0.2-0.3-0.3-0.4c0.6-0.3,1.2-0.6,1.7-0.9C918.6,942.4,918.2,942.9,917.7,943.3z"/>
			<path class="st2" d="M820.6,375.3c-1.1-3.4-4.5-5.4-8-4.5c-1.8,0.4-3.5,0.9-5.3,1.3c-2.2-1.7-5.1-2.5-8.6-1.8
				c-2.1,0.5-4.3,1-6.4,1.6c-2.6-0.3-5.4,0.3-7.7,1.9c-13.3,0.8-26.2,4.4-37.8,11c-11.2,6.3-26.3,17.8-19.4,32.5
				c3.3,7,10.6,10.8,18.3,8.9c6.4-1.7,12.8-6.7,18.3-10.3c10.5-6.8,20.6-14.4,30.1-22.6c3.4-1,6.8-1.9,10.2-2.7
				c3.9-0.9,6.2-3.2,7.1-6.1c1.6-0.4,3.1-0.8,4.7-1.2C819.3,382.5,821.6,378.6,820.6,375.3z"/>
			<path class="st2" d="M1107.1,332.9c-16-27.4-44.4-46.8-75.5-52.4c-8.7-4.2-17.9-7.2-28-8.5c-5.6-0.7-10.5,5.3-10.5,10.5
				c0,1.5,0.3,2.8,0.8,4c-0.3,1-0.5,2.1-0.5,3.2c0,5.3,4.8,11,10.5,10.5c7.5-0.7,15.1-0.4,22.4,0.8c7.3,4.1,14.2,9.2,20.6,14.2
				c14.7,11.5,28.9,23.9,45.8,32.1C1101.9,351.7,1112.7,342.5,1107.1,332.9z"/>
			<path class="st2" d="M1144.4,462.6c-7-28.5-23.9-53.1-47.1-70.8c-4.5-3.4-11.7-0.7-14.4,3.8c-2.2,3.8-1.7,7.7,0.4,10.9
				c-0.2,1.2,0,2.5,0.7,3.9c6.9,13.8,14.2,27.4,22.1,40.6c6.1,10.4,13,26.6,26.1,29.4c4.8,1,8-3,8.1-6.7
				C1143.6,471.4,1145.6,467.5,1144.4,462.6z"/>
			<path class="st2" d="M1225.3,482.7c-1.1-2.4-2.2-4.8-3.2-7.2c-4.6-24.3-18-46.7-31-67.5c-3.6-5.7-11.7-2.5-12.2,2.7
				c-0.5,0-1,0.1-1.5,0.2c-5.6,0.8-8.7,7.9-7.3,12.9c1.1,4.1,4,6.3,7.6,7.2c4.9,15.6,9.7,31.3,14.6,46.9
				c3.5,11.3,9.7,34.1,26.5,28.3c2.9-1,4.5-3.2,4.8-6.3c0.1-1.5,0.2-3,0.2-4.5C1227,492,1227.2,487,1225.3,482.7z"/>
			<path class="st2" d="M1171.8,535.8c0.2-0.2,0.4-0.3,0.6-0.5c1.8-1.8,3.2-4.8,3.1-7.4c-0.1-2.7-1-5.5-3.1-7.4
				c-2.1-1.9-4.6-3.1-7.4-3.1h-5.2c-2.7,0-5.5,1.2-7.4,3.1c-0.5,0.5-0.9,1-1.3,1.7c-0.1,0-0.2,0.1-0.3,0.1
				c-4.5,2.6-7.2,9.8-3.8,14.4c19,25.5,28.3,58.1,23.5,89.8c-0.8,5.6,1.4,11.3,7.3,12.9c5,1.4,12.1-1.7,12.9-7.3
				C1195.8,598.7,1189.4,564.4,1171.8,535.8z"/>
			<path class="st2" d="M1173.5,769c8.9-24.1,10.2-50.2,4.6-75.2c-0.4-1.7-1.1-3.1-1.9-4.2c0.2-0.3,0.3-0.7,0.5-1
				c3.5-7.5-7.7-14.1-11.2-6.6c-0.9,1.9-1.7,3.9-2.5,5.9c-3.7,2.1-6.2,6.2-5.1,11.5c0.2,0.9,0.4,1.8,0.6,2.8
				c-3.4,13.5-5.1,27.6-7.4,41.2c-1.6,9.4-5.8,21.3-2.8,30.7c2.6,8.2,12,12.8,19.7,8.4c3.5-2,3.8-5.7,2.3-8.5
				C1171.7,772.6,1172.8,770.9,1173.5,769z"/>
			<path class="st2" d="M1117.8,808.2c-0.8-5.6-7.9-8.7-12.9-7.3c-6,1.7-8.1,7.3-7.3,12.9c2.3,16.2-3.1,32.7-8.2,47.9
				c-5.7,16.9-11.5,33.7-17.3,50.5c-4.4,12.8,15.9,18.3,20.2,5.6c6.2-18,12.6-36,18.5-54.1C1116.8,845.5,1120.5,827.2,1117.8,808.2z
				"/>
			<path class="st2" d="M1091.5,979.5c-1.1-6.7-5.6-11.2-12.5-11.7c-2-0.1-3.5,0.5-4.5,1.5c-5.7-2.6-14.1-1-15.3,6.3
				c-1.2,7.3-2.9,14.3-5.3,21.1c-3.5,8.7-8.5,16.8-14.6,23.7c-3.7,4.3-4.2,10.7,0,14.8c1.5,1.5,3.4,2.4,5.5,2.8
				c-1.6,5.6,5.8,11.6,10.8,6.5c12.7-13,23.4-28,31.3-44.4C1090.2,993.5,1092.7,986.9,1091.5,979.5z"/>
			<path class="st2" d="M684,697.1c-4.8-14.1-9.5-28.2-14.3-42.2s-9.5-28.2-14.3-42.2c-1.4-4.2-3.2-9-4.4-13.9
				c0.2-0.3,0.4-0.5,0.6-0.8c6.4-9.7,8.4-25.7-2.7-31.6c-2.6-2-6.1-3-9.2-2.2c-15.6,0.4-21.2,23.2-20.1,36.1
				c1.4,16.3,8.6,31,15.3,45.7c6.7,14.6,12.2,29.7,16.6,45.1c2.5,8.6,4.4,17.2,6.4,25.9c1.8,7.8,4.9,15.9,11.4,21.1
				c5.7,4.6,12.1,3.6,16.5-2.1C694.5,724.3,688.1,709.1,684,697.1z"/>
			<path class="st2" d="M743.8,714.8c-3.3-0.1-6.8,1.2-9.1,4.8c-7.5,11.6-12,24.7-13.5,38.4c-4.7,4.9-10.1,9.3-16,12.9
				c-11.5,7.1-1,25.2,10.6,18.1c5.8-3.5,11.1-7.6,16.1-12.2c5-0.3,9.7-3.7,9.8-10.1c0-0.1,0-0.1,0-0.2
				c10.4-12.5,17.9-27.5,21.4-43.5C765.8,710.9,748.7,705.2,743.8,714.8z"/>
			<path class="st2" d="M1021.6,756.5c-6-4.2-13.6-5.9-18.2-11.9c-4.9-6.4-7.9-14-13.2-20.2c-5.9-6.8-13.6-11.1-22.6-11.5
				c-11.1-0.5-13,13.5-6,18.9c0,0.1,0.1,0.1,0.1,0.2c15.4,21.9,34.2,40.6,56.3,55.8c7.1,4.9,15.2-1.8,15.8-9.1
				C1034.5,769.4,1028.8,761.6,1021.6,756.5z"/>
			<path class="st2" d="M1088.8,621.6c-0.4,7.8-1.4,15.6-2.9,23.3c-0.8,0.7-1.5,1.6-2.2,2.7c-15.6,26.8-31.1,53.6-46.7,80.4
				c-3.4,5.9-0.3,13.6,6.3,15.4c14.1,3.9,23.9-7.3,31.2-17.8c7-10,13-20.8,17.9-32c10.1-22.9,16-47.1,17.4-72.1
				C1110.6,608.1,1089.6,608.1,1088.8,621.6z"/>
			<path class="st2" d="M953.5,1036.6c-1.4-2.2-3.6-4-6.3-5c-3.1-1.2-6.3-2-9.6-2.5c-29.3-18-67.6-19.3-97.7-1.6
				c-1,0.6-1.7,1.2-2.4,1.9c-6.9-0.2-13.7-0.2-20.6-0.2c-13.5-0.1-13.5,20.9,0,21c22.8,0.1,45.9,0.1,68.4,4.5
				c20.6,4.1,41.6,10.3,61.6,0.6C957.5,1055.1,959.7,1042,953.5,1036.6z M901.4,1037c1.7,0.3,3.4,0.7,5.1,1.1
				C904.8,1037.8,903.1,1037.4,901.4,1037z"/>
			<path class="st2" d="M1035.3,401.9c-4.2-4.2-8.8-7.8-13.7-10.8c-2.5-2-5-3.9-7.4-5.9c-2.1-1.7-4.6-2.7-7.1-2.9
				c-12.1-8.4-25.3-15-39.5-19.7c-2-0.7-4-0.7-5.7-0.1c-0.1-0.1-0.1-0.2-0.1-0.2c-0.1-0.1-0.5-1-0.5-1c-0.1-0.4-0.3-0.9-0.4-1.3
				c-0.8-3.3-4.7-5.6-8-4.5c-3.4,1.1-5.4,4.5-4.5,8c1,4,3.2,7.6,6.2,10.3c0.1,1.5,0.4,3,1.2,4.4c6.7,12.7,16.9,23,29.1,30
				c3.8,2.4,7.8,4.3,11.9,5.6c7.3,2.7,15,4.3,22.9,4.7c1.1,0.1,2.1,0,3-0.3c4.1,2.3,9.1,2.4,12.8-1.3
				C1039.3,412.7,1039.3,405.9,1035.3,401.9z"/>
			<path class="st2" d="M1047.6,484.2c-26-20.2-53.2-38.6-82-54.7c-11.8-6.6-22.4,11.5-10.6,18.1c4.2,2.4,8.4,4.8,12.5,7.2
				c-0.4,3.6,1,7.3,4.9,9.7c6.8,4.1,10.8,11.2,10.9,19.2c0.2,13.5,21.2,13.5,21,0c0-1.9-0.2-3.8-0.4-5.7
				c9.8,6.7,19.4,13.7,28.8,21.1c4.5,3.5,10.5,4.4,14.8,0C1051.2,495.5,1052.1,487.7,1047.6,484.2z"/>
			<path class="st2" d="M1092.7,517.4c0.8-3.3,0-6.8-2.7-9.5c-3.5-3.5-10.5-4.3-14.3-0.6c-5.7,1.3-10.7,5.3-13.4,10.5
				c-0.3,0.5-0.5,1.1-0.8,1.6c-3.2,2.1-6.6,4.1-9.8,6.1c-1.3,0.8-2.6,1.6-4,2.4c-4.6,1.8-8.9,4.4-12.6,7.7c-0.1,0.1-0.1,0.1-0.2,0.2
				c-4,2.5-8,5-12,7.5c-11.5,7.1-0.9,25.3,10.6,18.1c7.9-4.9,15.8-9.8,23.7-14.6c3.9-0.9,8-0.3,11.9,1.3c1.1,0.5,2.2,0.7,3.3,0.7
				c4.2,6.2,16.2,6.8,19.4-2.7C1094.1,539.1,1095.7,526.4,1092.7,517.4z"/>
			<path class="st2" d="M759.8,283h-4.5c-1.1-0.8-2.2-1.3-3.4-1.6c-5.4-1.1-10.5-0.5-14.9,1.6H726c-5.3,0-8,3.9-8.2,8
				c-10.1,2.1-20.1,6.2-29,11.5c-18.6,11.2-32.7,28.1-40.5,48.3c-3.8,9.9,10.8,17.7,17.5,10.2c12.3-13.6,28.5-21.9,44.5-30.2
				c13.8-7.1,27.6-14.4,39.6-24.1c3.1-1.6,5.7-3.8,7.4-6.6c0.1-0.1,0.2-0.1,0.2-0.2h2C770.7,300,770.7,283,759.8,283z"/>
			<path class="st2" d="M939.3,611.4c-12.6-23-23.7-46.7-33-71.3c-2-5.3-7.1-8.9-12.9-7.3c-5.1,1.4-9.4,7.6-7.3,12.9
				c9.9,26.2,21.6,51.7,35.1,76.3C927.7,633.8,945.9,623.3,939.3,611.4z"/>
			<path class="st2" d="M849.5,514.9c-2.7-4.6-9.7-7.1-14.4-3.8c-5.2,3.7-8.4,8.6-10.7,14c-4.8,0.1-7.9,3-9.2,6.5
				c-0.8,1-1.4,2.3-1.6,3.6c-2,13.2-4,26.4-6,39.6c-3.6,7.4-7.7,14.6-12.3,21.5c-7.4,11.3,10.7,21.9,18.1,10.6c2-3,3.9-6.1,5.7-9.2
				c3.5-1,6.6-3.6,7.2-7.2l1.4-9.2c2.5-5.4,4.8-10.8,6.8-16.4c2.6-7.1,4.8-14.3,6.5-21.7c0.9-3.8,1.5-11.8,4.6-14.1
				C850.3,526,852.5,520.1,849.5,514.9z"/>
			<path class="st2" d="M573,459c-15.7,8.6-25.6,24.5-30.2,41.4c-5.6,20.2-3.7,41.4-4.5,62.1c-0.1,2.9,0.8,5.2,2.3,6.9
				c0.2,2.5,0.4,5,0.7,7.5c0.7,5.6,4.4,10.5,10.5,10.5c5.2,0,11.2-4.8,10.5-10.5c-4.1-35,3.5-70.1,22-100.1
				C595,470,584.6,452.6,573,459z"/>
			<path class="st2" d="M692.2,537.1c-7.9-12-11.6-24.9-12.1-39.2c-0.1-3.7-0.6-7.3-1.9-10.6c-0.2-2.4-1.4-4.7-3.2-6.5
				c1.7-3.5,1.2-8.1-1.2-11.1c-3.5-4.3-8.6-4.9-13.5-2.7c-9.6,4.4-13.5,15.1-11.7,25c0.3,1.7,1.1,3.1,2.1,4.3
				c-1.1,4.6-1.3,9.4-0.7,14.1c1.6,12.2,8.3,22.3,15.4,32c2.2,2.9,5.2,4.9,8.6,5.1c0,0.1,0.1,0.1,0.1,0.2
				C681.4,558.9,699.6,548.4,692.2,537.1z"/>
			<path class="st2" d="M590.1,688.9c0.1-2-0.3-4.1-1.2-6.1c-5.2-12-8.4-24.8-9.5-37.8c0.4-2.6,0.7-5.2,1.1-7.8
				c0.8-5.6-1.4-11.3-7.3-12.9c-4.9-1.4-12.1,1.7-12.9,7.3c-0.1,0.4-0.1,0.8-0.2,1.2c-0.7,0.8-1.2,1.8-1.6,2.8
				c-5.5,1-10.4,5.8-8.3,12.8c3.5,11.9,7,23.8,10.4,35.7c1.4,12.7,3,25.4,4.7,38.1c1.1,8,8.1,13,15.8,9.1c5-2.5,7.5-6.3,8.5-10.8
				c2.5-1.9,4.1-4.8,4.1-8.2v-15.6C593.7,693.7,592.3,690.9,590.1,688.9z"/>
			<path class="st2" d="M714.2,998c-8.5-11.4-16.9-22.9-25.4-34.3c-6.6-9-15.8-18.8-15-30.7c0.4-5.7-5.1-10.5-10.5-10.5
				c-6,0-10.1,4.8-10.5,10.5c-1,14.6,7.2,27,15.5,38.2c9.2,12.5,18.5,25,27.7,37.5c3.4,4.6,9.1,6.8,14.4,3.8
				C714.9,1009.7,717.5,1002.5,714.2,998z"/>
			<path class="st2" d="M666.6,864.8c-11.4-20.7-22.1-41.8-32.1-63.2c-0.3-5.4-0.5-10.8-1.6-16.1c-2-10.3-6.4-20.4-12.2-29.1
				c-3.2-4.7-9.3-6.8-14.4-3.8c-4.7,2.7-6.9,9.6-3.8,14.4c0,0,0,0.1,0.1,0.1c-2.4,2.4-3.6,5.8-2.2,9.6c2.2,5.7,4.4,11.3,6.7,17
				c-1,2-1.4,4.4-0.7,7.1c2.1,8.6,5.6,16.6,10.1,24c0.2,0.8,0.4,1.6,0.6,2.3c5.9,19.6,19,35.9,32.9,50.4
				C658.5,886.3,672.3,875.1,666.6,864.8z"/>
			<path class="st2" d="M914.6,376.1c-4.1-11.5-8.2-23.1-12.3-34.6c-3.6-10.2-20.1-5.8-16.4,4.5c1.3,3.6,2.6,7.3,3.9,10.9
				c-2.1,8.6-3.4,18.1,1.5,25.9c4.7,7.7,13.8,12.3,22.7,9.6C922.4,389.8,921,378.5,914.6,376.1z"/>
			<path class="st2" d="M1106.4,1207c-13.3-2.9-26.9-5-40.5-5.7c-26.6-1.3-53.3,3.8-74.4,20.9c-5.2,4.2,0.4,12.5,6.3,10.9
				c1.8-0.5,3.5-1,5.3-1.4c0.3,0,0.5,0,0.8,0c21.9-1.8,44-1.2,65.8,2.3c16.4,2.7,35.3,9,49.6-2.7c0.7,0.6,1.5,1.2,2.6,1.5
				c3.1,0.9,7.5-1.1,8-4.5C1131.9,1214,1117.7,1209.4,1106.4,1207z"/>
			<path class="st2" d="M1311.7,1157.1c-0.5-0.9-1.2-1.6-2-2.1c0-2.8-2.1-5.1-4.8-6.2c-33.8-13.7-72.3-13.7-106.2-0.9
				c-7.6,1-15.1,2.5-22.5,4.5c-6.4,1.7-5.6,9.9-1,12.2c1.1,3.7,5.1,6.6,9.4,4.1c1.1-0.6,2.1-1.2,3.2-1.8c1.2,2.5,3.8,4.3,7.3,3.5
				c13.2-3.2,26.6-4.9,40.1-5.2c1.2,0.6,2.6,0.8,4.1,0.5c0.6-0.1,1.2-0.2,1.8-0.3c8.6,0.5,17.2,0.6,25.8,0.4c3.9,1,7.9,1.9,11.8,2.5
				c2.1,0.7,4.2,1.5,6.2,2.3c1.9,0.8,4.1,0.1,5.7-1.2c6.1,0,12.3-0.9,18.4-3.5C1312.6,1164.6,1313.3,1159.9,1311.7,1157.1z"/>
			<path class="st2" d="M1469.6,1282.8c-9.8-4.9-20.1-8.5-30.8-10.7c-1-0.7-2.2-1-3.7-1c-0.3,0-0.6,0-0.9,0
				c-3.9-0.7-7.8-1.2-11.7-1.6c-2.5-0.2-4.3,1-5.4,2.8c-21.5,1.9-42.8,5.6-63.7,11.1c-7.5,2-5.3,12.1,1.7,12.8
				c1.2,0.1,2.4,0.2,3.6,0.3c1,0.7,2.2,1.2,3.8,1.2c3.7,0.1,7.5,0.1,11.2,0.2c29.7,2.7,59.4,5.5,89.1,8c6.2,0.5,13.9-0.1,16.4-7
				C1481.7,1291.3,1475.7,1285.9,1469.6,1282.8z M1460,1292.6c-1.2-0.1-2.4-0.2-3.7-0.3c0-0.4,0-0.9-0.1-1.3c1.2,0.5,2.4,1,3.6,1.5
				C1459.9,1292.5,1460,1292.6,1460,1292.6z M1424.3,1284.7c0.5,0.3,1,0.6,1.4,0.9c-3.4,0-6.8-0.1-10.1-0.1
				C1418.5,1285.2,1421.4,1284.9,1424.3,1284.7z"/>
			<path class="st2" d="M1210.7,1303.9c-0.5-1.9-1.7-3.2-3.2-3.9c-0.3-1.5-1.2-2.8-2.8-3.9c-17.9-12.1-40-16.9-61.4-13.8
				c-8.7,1.3-21,3.4-26.1,11.5c-5.3,8.5,1.8,21.6,12.4,18.3c3.2-1,4.6-3.7,4.5-6.4c10.7-3.3,22.1-4.2,33.2-2.1
				c13.2,2.5,24.8,10.3,38.6,8.2C1209.7,1311.4,1211.5,1307,1210.7,1303.9z"/>
			<path class="st2" d="M746.3,1245.8c-3.4-2.7-6.9-5.1-10.5-7.2c-3.8-2.6-7.5-5.2-11.3-7.8c-2.5-1.7-4.9-1.4-6.6,0
				c-20-6.1-42-4.7-61.5,4.8c-5.5,2.7-3.3,9.7,1.3,11.6c-0.5,3.5,1.6,7.6,6.2,8c14.8,1,29.6,2,44.4,3c7.2,0.5,14.3,1.1,21.5,1.5
				c6.3,0.3,11.6-0.6,16.7-4.6C748.9,1253,748.8,1247.8,746.3,1245.8z"/>
			<path class="st2" d="M568.7,1334.7c-1.4-2.4-3.3-4.2-5.6-5.6c-0.5-1.9-1.9-3.6-4.3-4.4c-2.9-0.9-5.8-1.7-8.8-2.4
				c-0.8-0.4-1.7-0.6-2.6-0.6c-12-2.6-24.3-3.3-36.5-2.1c-10,1-37.4,3.5-29.5,20.2c3.1,6.6,10,8.5,16.8,7.7c8.1-1,15.7-2.7,24-2.6
				c7.8,0.1,15.5,1.2,23,3.3c6.3,1.8,14.4,6.9,20.8,2.9C571.7,1347.5,571.8,1340,568.7,1334.7z M534.2,1332.7
				c3.6,0.4,7.1,1,10.7,1.8c0.1,0.1,0.3,0.2,0.4,0.3C541.6,1333.9,537.9,1333.2,534.2,1332.7z"/>
			<path class="st2" d="M423.1,1247.9c-0.9-5.5-5-9.4-9.7-12.2c-2.9-4.2-7.7-7.1-13.3-7.1c-1.3,0-2.6,0.2-3.9,0.5
				c-15.1-4.5-31.4-7.3-46.8-7.8c-20.2-0.6-41.2,4.1-57.6,16.3c-4.4,3.3-3.8,8.7,0.1,11c-1.4,4.3,1.9,10.2,7.7,8.6
				c18.2-5.1,37-2.2,55.3,1.1c9.4,1.7,18.7,3.5,28.1,4.7c8.9,1.1,18.7,2.4,27.6,0.6C418,1262.2,424.4,1256,423.1,1247.9z
				 M360.9,1235.5c-0.1,0.2-0.2,0.4-0.3,0.6c-1.5-0.4-2.9-0.7-4.4-1.1C357.8,1235.1,359.4,1235.3,360.9,1235.5z"/>
			<path class="st2" d="M576.5,1213.5c-12.9-9.9-28.5-15.5-44.7-16.7c-14.4-1.1-33.3,0.8-43.8,11.8c-5,5.2-8,12.9-4.2,19.7
				c3.6,6.6,10.8,8.6,17.9,7.6c7.6-1.1,14.3-5.4,21.6-7.7c9-2.9,18-3.7,26.9-0.3c4,1.5,6.8-1,7.6-4.2c5.2,0.7,10.3,1.3,15.5,2
				c2.8,0.3,5.6-2.3,6.3-4.8C580.3,1217.8,578.8,1215.2,576.5,1213.5z"/>
			<path class="st2" d="M567.1,1111.3c-0.3-0.1-0.5-0.1-0.8-0.2c-0.9-1.3-2.1-2.5-3.4-3.5c-5.4-4.2-12.9-6.1-19.4-7.9
				c-7.3-2-14.7-3.4-22.2-4.2c-29.9-3.3-60.9,3.8-86.3,19.9c-6.9,4.4-0.8,15.3,6.2,11.4c1.4,1.2,3.3,1.8,5.7,1.1
				c1-0.3,2.1-0.6,3.1-0.9c20.4,0,40.7,0.1,61.1,0.1c10.3,0,20.6,0,30.9,0.1c3.3,0,6.5,0,9.6-0.2c4.6,4.1,11.6,2.2,15.1-2.6
				c0.1-0.1,0.2-0.3,0.3-0.4c0.6-0.2,1.2-0.5,1.7-0.8C573.7,1120.8,572.3,1112.5,567.1,1111.3z"/>
			<path class="st2" d="M912.8,1355.3c0-0.4,0-0.8,0-1.3c-1.1-6.5-2.1-13-3.2-19.5c0-0.2-0.1-0.4-0.2-0.6c0.1-0.4,0.2-0.8,0.2-1.2
				v-18c0-0.6-0.1-1.1-0.3-1.5c0.6-5,1.2-10,1.7-15c0-0.3,0-0.6,0-0.9c0-0.2,0.1-0.4,0.1-0.6v-43.5c0,0,0,0,0-0.1c0.9-1,1.4-2.4,1-4
				c-1-4.1-1.7-8.1-2.1-12.2c0.7-0.7,1.1-1.8,1-3.1l-3.1-30c-0.6-5.7-9.6-5.8-9,0l0.5,4.5c-2.7-0.9-5.3-1.8-8-2.7
				c-0.8-0.3-1.7-0.2-2.5,0c-0.3-1.5-0.6-2.9-0.9-4.4c-1.3-5.6-10-3.3-8.7,2.4c2.5,10.9,3.1,22,1.9,33.2c-0.1,0.5,0,1,0.1,1.4
				c0,0,0,0.1,0,0.1c-0.8,8.7-1.6,17.4-2.4,26.1c-0.5,0.6-0.8,1.4-0.9,2.4c-0.9,11.4-0.8,22.8,0.3,34.2c-0.9,0.7-1.6,1.8-1.6,3.3
				c-0.3,7.2,0.3,14.3,1.9,21.2c-0.1,0.4-0.2,0.8-0.3,1.3c-0.6,11-1.3,22-1.9,33c-0.1,0.5-0.2,1-0.2,1.5c0.6,13.5,1.2,27,1.7,40.5
				c0.2,3.8,4.1,5.1,6.7,3.9c4,3.5,9.2,5.4,14.5,5.1c0.6,0,1-0.2,1.5-0.3v4.9c0,5.8,9,5.8,9,0v-40.5c0-1.2-0.4-2.2-1-2.9
				c-0.4-4.5,1.1-8.8,3.9-12.5C913.5,1357.9,913.4,1356.4,912.8,1355.3z M897.8,1217.3c0.8,0.3,1.6,0.2,2.3,0l1.1,10.9
				c-0.5,0.7-0.8,1.5-0.8,2.6c0,0.1,0,0.2,0,0.2c-0.4-0.1-0.9-0.2-1.5-0.2h-8.6c0.3-5.4,0.1-10.7-0.5-16.1
				C892.6,1215.5,895.2,1216.4,897.8,1217.3z M889.9,1239.7C890,1239.7,890,1239.7,889.9,1239.7l9.1,0c0.8,0,1.5-0.2,2.1-0.5
				c0.4,3.7,1.1,7.5,2,11.1c-0.4,0.4-0.6,0.9-0.8,1.5c-3.2-0.9-6.4-1.8-9.6-2.7c-1.4-0.4-2.7-0.1-3.6,0.5
				C889.3,1246.4,889.6,1243.1,889.9,1239.7z M887.6,1265.3c0.3-2.8,0.5-5.6,0.8-8.4c0.5,0.4,1.1,0.8,1.9,1c3.5,1,7,2,10.5,3
				c0.4,0.1,0.9,0.2,1.3,0.2v10.1c-0.4,0-0.8,0-1.2,0.1c-3.9,0.8-7.9-0.3-10.8-2.9c-0.9-0.8-1.9-1.1-2.9-1.2
				C887.3,1266.6,887.6,1266,887.6,1265.3z M886.3,1276.8c4.7,3,10.1,4.2,15.7,3.3v16.6c0,0.3,0,0.6,0.1,0.9c0,0.2-0.1,0.4-0.1,0.6
				c0,0,0,0,0,0c-0.2-1.5-1.2-2.8-3.2-3.2c-4-0.9-8.1-1.7-12.1-2.6c-0.1,0-0.2,0-0.2,0C886.2,1287.2,886.2,1282,886.3,1276.8z
				 M887.4,1304.2c-0.1-0.8-0.2-1.7-0.3-2.5c3.1,0.7,6.2,1.3,9.2,2c2.6,0.6,4.6-1,5.3-3c-0.5,4.2-1,8.3-1.5,12.5
				c-0.1,0.6,0,1.2,0.3,1.7v1.3c-4.2-0.1-7.9-1.4-11.3-3.8c-1.3-0.9-2.6-1-3.7-0.5c-0.1-1.3-0.1-2.6-0.1-3.9
				C886.7,1307.4,887.7,1306.2,887.4,1304.2z M889,1329.8c-0.9-2.8-1.6-5.5-2.2-8.3c4.2,2.4,8.9,3.6,13.8,3.7v7.5
				c0,0.8,0.2,1.4,0.5,2c-0.1,0.4-0.2,0.8-0.2,1.3c-0.1,0-0.2,0-0.3-0.1c-4.3-0.5-8.7-1-13-1.6
				C888.8,1333.5,889.6,1331.9,889,1329.8z M900.1,1376.1c0.1,0.5,0.3,1,0.5,1.3v2c-0.4,0-0.7,0.1-1.1,0.2
				c-4.1,1.3-8.4,1.8-12.7,1.2c-0.3,0-0.6-0.1-0.9-0.1l-0.6-14.3c3.6,0.4,7.2,0.8,10.7,1.1c1.8,0.2,3.4-1.1,4.1-2.7
				C899.3,1368.5,899.3,1372.3,900.1,1376.1z M899,1401.7c-3.4,0.2-6.4-0.8-8.9-3.1c-1.1-1.1-2.4-1.4-3.6-1.2l-0.3-7.7
				c4.8,0.5,9.6,0.2,14.3-1v13.2C900.1,1401.8,899.6,1401.7,899,1401.7z M900.5,1363.2c0,0,0-0.1,0-0.1c0-2.6-2.1-4.2-4.5-4.5
				c-3.5-0.4-7.1-0.8-10.6-1.1c0.3-4.7,0.5-9.4,0.8-14.1l14.3,1.7c0.6,0.1,1.1,0,1.6-0.2c0.6,3.7,1.2,7.3,1.8,11
				C902.4,1358.1,901.2,1360.6,900.5,1363.2z"/>
		</g>
		<path class="st3" d="M732.8,600.4c-8.6,0-16.9,7.6-16.5,16.5c0.4,8.9,7.2,16.5,16.5,16.5c8.6,0,16.9-7.6,16.5-16.5
			C748.9,607.9,742.1,600.4,732.8,600.4z"/>
		<path class="st3" d="M1020.9,612.4c-8.6,0-16.9,7.6-16.5,16.5c0.4,8.9,7.2,16.5,16.5,16.5c8.6,0,16.9-7.6,16.5-16.5
			C1037,619.9,1030.1,612.4,1020.9,612.4z"/>
	</g>
</g>
<g id="Layer_3">
</g>
</svg>
