<?xml version="1.0" encoding="utf-8"?>
<!-- Generator: Adobe Illustrator 22.0.1, SVG Export Plug-In . SVG Version: 6.00 Build 0)  -->
<svg version="1.1" id="Layer_1" xmlns="http://www.w3.org/2000/svg" xmlns:xlink="http://www.w3.org/1999/xlink" x="0px" y="0px"
	 viewBox="0 0 461.1 265" style="enable-background:new 0 0 461.1 265;" xml:space="preserve">
<style type="text/css">
	.st0{fill:#73D5F6;}
	.st1{fill:#FFFFFF;}
	.st2{fill:#4CBD9F;stroke:#FFFFFF;stroke-width:2;stroke-miterlimit:10;}
	.st3{fill:#EF533F;stroke:#FFFFFF;stroke-width:2;stroke-miterlimit:10;}
	.st4{fill:#0096CC;}
	.st5{opacity:0.17;}
	.st6{fill:none;}
</style>
<g class="st5">
	<g>
		<g>
			<g>
				<circle class="st1" cx="42.4" cy="166.9" r="18.5"/>
				<circle class="st1" cx="110.9" cy="166.9" r="18.5"/>
				<path class="st4" d="M29.2,246c-2.8,0-4.9-2.4-4.6-5.1c2.6-26.5,25-47.1,52.2-47c27.1,0.1,49.4,20.8,51.9,47.3
					c0.3,2.7-1.9,5.1-4.7,5.1L29.2,246z"/>
				<circle class="st4" cx="42.4" cy="166.9" r="9.7"/>
				<circle class="st4" cx="110.9" cy="166.9" r="9.7"/>
			</g>
			<g>
				<circle class="st1" cx="198" cy="166.9" r="18.5"/>
				<circle class="st1" cx="266.5" cy="166.9" r="18.5"/>
				<path class="st4" d="M184.8,246c-2.8,0-4.9-2.4-4.6-5.1c2.6-26.5,25-47.1,52.2-47c27.1,0.1,49.4,20.8,51.9,47.3
					c0.3,2.7-1.9,5.1-4.7,5.1L184.8,246z"/>
				<circle class="st4" cx="198" cy="166.9" r="9.7"/>
				<circle class="st4" cx="266.5" cy="166.9" r="9.7"/>
			</g>
			<g>
				<circle class="st1" cx="353.6" cy="166.9" r="18.5"/>
				<circle class="st1" cx="422.1" cy="166.9" r="18.5"/>
				<path class="st4" d="M340.4,246c-2.8,0-4.9-2.4-4.6-5.1c2.6-26.5,25-47.1,52.2-47c27.1,0.1,49.4,20.8,51.9,47.3
					c0.3,2.7-1.9,5.1-4.7,5.1L340.4,246z"/>
				<circle class="st4" cx="353.6" cy="166.9" r="9.7"/>
				<circle class="st4" cx="422.1" cy="166.9" r="9.7"/>
			</g>
		</g>
		<circle class="st1" cx="33.9" cy="31.9" r="18.5"/>
		<circle class="st4" cx="33.9" cy="31.9" r="9.7"/>
		<g>
			<circle class="st1" cx="119.4" cy="31.9" r="18.5"/>
			<circle class="st1" cx="187.9" cy="31.9" r="18.5"/>
			<path class="st4" d="M106.2,111c-2.8,0-4.9-2.4-4.6-5.1c2.6-26.5,25-47.1,52.2-47c27.1,0.1,49.4,20.8,51.9,47.3
				c0.3,2.7-1.9,5.1-4.7,5.1L106.2,111z"/>
			<circle class="st4" cx="119.4" cy="31.9" r="9.7"/>
			<circle class="st4" cx="187.9" cy="31.9" r="9.7"/>
		</g>
		<g>
			<circle class="st1" cx="273.4" cy="31.9" r="18.5"/>
			<circle class="st1" cx="341.9" cy="31.9" r="18.5"/>
			<path class="st4" d="M260.2,111c-2.8,0-4.9-2.4-4.6-5.1c2.6-26.5,25-47.1,52.2-47c27.1,0.1,49.4,20.8,51.9,47.3
				c0.3,2.7-1.9,5.1-4.7,5.1L260.2,111z"/>
			<circle class="st4" cx="273.4" cy="31.9" r="9.7"/>
			<circle class="st4" cx="341.9" cy="31.9" r="9.7"/>
		</g>
		<circle class="st1" cx="427.4" cy="31.9" r="18.5"/>
		<circle class="st4" cx="427.4" cy="31.9" r="9.7"/>
		<path class="st4" d="M461.7,58.9c-27.1-0.1-49.5,20.6-52.1,47c-0.3,2.7,1.9,5.1,4.6,5.1l47.5,0.1V58.9z"/>
		<path class="st4" d="M51.7,106.1C49.1,79.7,26.9,58.9-0.3,58.9c0,0,0,0,0,0v52.3l47.3,0.1C49.7,111.3,51.9,108.9,51.7,106.1z"/>
	</g>
	<rect x="0.7" y="-1" class="st6" width="460" height="265"/>
</g>
</svg>
